<svg width="28" height="28" viewBox="0 0 28 28" fill="none" xmlns="http://www.w3.org/2000/svg">
<rect x="0.605469" y="0.910645" width="27.096" height="26.303" rx="13.1515" fill="white"/>
<path fill-rule="evenodd" clip-rule="evenodd" d="M12.1316 16.1562C12.6439 16.6189 12.6842 17.4093 12.2215 17.9217L8.7109 21.8089C8.2482 22.3213 7.45777 22.3615 6.94542 21.8988C6.43307 21.4361 6.39283 20.6457 6.85553 20.1333L10.3661 16.2461C10.8288 15.7337 11.6192 15.6935 12.1316 16.1562Z" fill="#989898"/>
<path d="M14.9093 8.4243C17.3111 8.4243 19.266 10.3792 19.266 12.781C19.266 15.1828 17.3111 17.1378 14.9093 17.1378C12.5075 17.1378 10.5525 15.1828 10.5525 12.781C10.5525 10.3792 12.5075 8.4243 14.9093 8.4243ZM14.9093 7.15485C11.8017 7.15485 9.28308 9.67343 9.28308 12.781C9.28308 15.8887 11.8017 18.4072 14.9093 18.4072C18.0169 18.4072 20.5355 15.8887 20.5355 12.781C20.5406 9.67343 18.0169 7.15485 14.9093 7.15485Z" fill="#989898"/>
</svg>
