<svg width="294" height="94" viewBox="0 0 294 94" fill="none" xmlns="http://www.w3.org/2000/svg">
<path d="M62.6638 0.667813C64.7834 0.660077 66.9108 0.66008 69.0381 0.652344C69.0149 8.26442 69.1155 15.8765 68.9917 23.4886C68.9376 28.4008 66.8644 33.638 62.3621 36.0748C57.2719 38.6663 50.8202 38.6508 45.8306 35.835C41.5836 33.3518 39.5259 28.2384 39.6342 23.4731C39.6574 15.8688 39.6419 8.26442 39.6497 0.660078C41.7151 0.660078 43.7729 0.660078 45.8383 0.660078C45.8538 7.24329 45.8229 13.8188 45.8461 20.402C45.9544 23.4267 45.9621 26.7144 47.78 29.2982C50.2246 32.6633 55.3534 32.9805 58.8036 31.0852C61.9212 29.2054 62.5865 25.2833 62.6483 21.9337C62.6948 14.8476 62.6483 7.75385 62.6638 0.667813Z" fill="black"/>
<path d="M90.2809 0.806973C95.6418 -0.786612 101.622 0.18037 106.395 3.0349C106.371 5.26282 106.371 7.48301 106.364 9.7032C102.357 6.71716 97.0266 4.52018 92.0524 6.26075C89.9018 6.90282 88.4939 9.4866 89.5305 11.5753C90.3815 13.5711 92.6945 14.1513 94.5279 14.894C98.4732 16.4643 103.022 17.3075 105.946 20.6417C109.706 25.1826 108.754 33.2666 103.246 36.0283C97.0498 39.2387 89.3062 38.2175 83.3651 34.8757C83.3573 32.5858 83.3573 30.3038 83.3341 28.014C87.8054 31.4564 94.0096 33.4987 99.4866 31.4023C102.473 30.3192 102.852 25.6777 100.144 24.0687C95.9435 21.5236 90.7837 21.0053 86.7534 18.1198C83.2103 15.5747 82.166 10.5232 83.6358 6.54697C84.7343 3.6615 87.3877 1.65792 90.2809 0.806973Z" fill="black"/>
<path d="M147.797 0.11084C156.229 7.84669 164.429 15.8456 172.706 23.7516C172.706 16.0544 172.706 8.35725 172.706 0.660084C174.772 0.660084 176.83 0.660084 178.895 0.660084C178.895 13.1071 178.911 25.5618 178.887 38.0088C170.448 29.9944 162.24 21.7403 153.754 13.7723C153.761 21.5856 153.746 29.391 153.761 37.1965C151.758 37.212 149.762 37.212 147.766 37.2197C147.774 24.8501 147.712 12.4805 147.797 0.11084Z" fill="black"/>
<path d="M195.148 0.652116C202.613 0.652116 210.07 0.690793 217.528 0.628906C217.574 2.50872 217.574 4.38853 217.574 6.26834C212.221 6.26834 206.875 6.2606 201.522 6.27608C201.522 9.16928 201.522 12.0702 201.522 14.9634C206.295 14.9789 211.06 14.9634 215.833 14.9789C215.833 16.8432 215.833 18.7076 215.833 20.5797C211.06 20.5874 206.295 20.5797 201.522 20.5797C201.522 24.2542 201.514 27.9365 201.538 31.611C206.875 31.5878 212.221 31.611 217.559 31.5955C217.566 33.5295 217.574 35.4712 217.574 37.4051C210.093 37.4051 202.621 37.4051 195.14 37.4051C195.148 25.1515 195.125 12.9057 195.148 0.652116Z" fill="black"/>
<path d="M235.707 2.09081C241.509 -1.26654 248.92 -0.237675 254.614 2.85666C254.722 5.131 254.722 7.41308 254.714 9.68742C250.583 6.59308 245.021 4.38063 239.946 6.40742C237.069 7.42855 236.736 11.7761 239.351 13.2769C243.613 15.7214 248.819 16.2165 252.803 19.218C258.157 23.2097 257.762 32.8718 251.643 35.9584C245.447 39.2074 237.626 38.2482 231.7 34.8135C231.692 32.5546 231.692 30.2957 231.661 28.0369C235.978 31.1235 241.47 33.2199 246.793 31.781C248.758 31.2859 250.56 29.5221 250.281 27.3561C250.32 25.7006 249.16 24.2463 247.705 23.5655C243.528 21.3995 238.6 20.7884 234.81 17.8565C229.867 14.035 230.191 5.25478 235.707 2.09081Z" fill="black"/>
<path d="M272.839 2.21482C278.595 -1.26631 286.129 -0.330272 291.815 2.84916C291.838 5.10029 291.838 7.34369 291.854 9.59482C287.762 6.50048 282.176 4.40407 277.171 6.44633C274.386 7.52935 274.061 11.7454 276.614 13.2771C280.977 15.8144 286.408 16.2167 290.4 19.458C293.834 22.1656 294.523 27.1861 293.192 31.1469C291.947 34.6744 288.396 36.7244 284.907 37.4826C279.554 38.5888 273.837 37.5986 269.079 34.922C269.002 32.6244 269.002 30.3269 268.994 28.0293C273.497 31.3712 279.631 33.5141 285.1 31.4022C288.079 30.3192 288.535 25.755 285.851 24.0995C281.534 21.3997 276.088 21.0129 272.035 17.8103C267.269 13.9888 267.494 5.44067 272.839 2.21482Z" fill="black"/>
<path d="M0.00343816 0.660125C6.48608 1.03918 13.224 -0.299121 19.4978 1.75088C26.4678 3.98654 27.458 14.8864 21.0991 18.4294C26.8932 20.8275 28.2238 29.043 24.2476 33.5916C21.8031 36.5003 17.8114 37.2739 14.1987 37.3822C9.46438 37.4596 4.73778 37.3822 0.00343816 37.4054C0.00343816 25.1596 -0.00429769 12.906 0.00343816 0.660125ZM6.19985 6.27635C6.19212 9.49446 6.19212 12.7126 6.19985 15.9307C9.52627 15.7682 12.9765 16.3948 16.2255 15.4588C20.1476 14.3216 20.1785 7.8622 16.2797 6.68635C12.9919 5.85088 9.54948 6.42333 6.19985 6.27635ZM6.19985 21.3535C6.18438 24.8347 6.19212 28.3158 6.19985 31.7892C10.0136 31.5184 14.1214 32.5396 17.734 30.9382C21.3157 29.1899 20.9908 23.2333 17.2389 21.895C13.6804 20.7811 9.86665 21.5933 6.19985 21.3535Z" fill="black"/>
<path d="M123.97 0.660156C126.036 0.660156 128.094 0.660156 130.159 0.660156C130.159 12.906 130.159 25.1596 130.159 37.4054C128.094 37.4054 126.036 37.4054 123.97 37.4054C123.97 25.1596 123.97 12.906 123.97 0.660156Z" fill="black"/>
<path d="M98.6122 57.7117C104.391 54.0526 112.096 55.0737 117.805 58.3692C117.774 60.5817 117.774 62.7941 117.782 65.0066C113.604 61.9509 107.864 59.5915 102.836 61.9354C100.353 63.119 100.028 66.809 102.264 68.4103C106.843 71.319 112.931 71.4583 116.884 75.4345C119.53 77.9332 119.971 81.9171 119.29 85.3209C118.501 88.7247 115.53 91.262 112.258 92.229C106.534 93.9928 100.097 93.0413 94.9454 90.0475C94.9609 87.7809 94.9686 85.5143 94.9454 83.2477C99.3007 86.52 105.219 88.6705 110.572 86.752C113.805 85.8856 114.447 80.9192 111.523 79.2947C107.199 76.5949 101.699 76.2545 97.7226 72.9126C93.2126 69.0988 93.5065 60.8988 98.6122 57.7117Z" fill="black"/>
<path d="M24.5647 56.1646C26.6302 56.1646 28.6879 56.1646 30.7457 56.1646C30.7611 68.2789 30.7534 80.401 30.7534 92.523C28.6879 92.523 26.6302 92.523 24.5647 92.523C24.5647 80.401 24.557 68.2789 24.5647 56.1646Z" fill="black"/>
<path d="M48.3447 55.3135C56.5757 63.1731 64.7834 71.0637 73.0917 78.8459C73.1227 71.2184 73.0994 63.5986 73.1072 55.9788C75.1649 55.971 77.2304 55.971 79.2959 55.971C79.3113 68.3716 79.2804 80.7644 79.3113 93.165C70.9179 85.2048 62.687 77.0744 54.3632 69.0446C54.3245 76.8655 54.3632 84.6942 54.3477 92.5229C52.3442 92.5229 50.3483 92.5229 48.3525 92.5152C48.3447 80.1146 48.3602 67.714 48.3447 55.3135Z" fill="black"/>
<path d="M135.381 56.1646C137.446 56.1646 139.504 56.1646 141.57 56.1646C141.57 68.2866 141.57 80.401 141.57 92.523C139.504 92.523 137.446 92.523 135.381 92.523C135.381 80.401 135.373 68.2866 135.381 56.1646Z" fill="black"/>
<path d="M159.37 56.1646C164.351 56.1646 169.341 56.1646 174.331 56.1492C180.001 56.0796 185.857 58.9805 188.627 64.0475C191.605 69.3697 191.798 75.9839 189.942 81.7162C187.961 87.7424 182.067 92.0048 175.785 92.4071C170.316 92.6856 164.839 92.4458 159.362 92.5231C159.362 80.4011 159.354 68.279 159.37 56.1646ZM165.744 61.7731C165.744 70.1511 165.744 78.529 165.744 86.9069C170.177 86.7445 174.95 87.5877 179.073 85.5145C183.033 83.4722 184.851 78.8307 184.735 74.5605C184.898 70.2439 183.374 65.4012 179.398 63.1888C175.228 60.8603 170.285 62.0671 165.744 61.7731Z" fill="black"/>
<path d="M203.843 56.1646C211.254 56.1568 218.665 56.1646 226.084 56.1646C226.084 58.0366 226.076 59.9087 226.076 61.7808C220.723 61.7653 215.377 61.7731 210.032 61.7808C210.032 64.6121 210.032 67.4434 210.032 70.2748C214.797 70.2825 219.57 70.2825 224.343 70.2825C224.343 72.0849 224.343 73.8951 224.343 75.6976C219.57 75.6976 214.797 75.6899 210.032 75.7053C210.032 79.4417 210.032 83.1704 210.032 86.9068C215.377 86.9223 220.73 86.9068 226.084 86.9146C226.084 88.7866 226.084 90.651 226.084 92.5231C218.665 92.5231 211.254 92.5308 203.843 92.5231C203.843 80.401 203.843 68.2866 203.843 56.1646Z" fill="black"/>
<path d="M244.271 56.1569C249.291 56.2034 254.312 56.1105 259.325 56.1879C263.579 56.2962 268.089 58.7485 269.319 63.0496C270.418 66.786 270.155 71.2186 267.757 74.4135C266.279 76.3166 263.904 77.0437 261.676 77.6549C266.024 82.5671 270.34 87.5103 274.618 92.4922C272.174 92.5386 269.737 92.5386 267.3 92.5C263.154 87.5722 258.93 82.7141 254.76 77.8173C253.383 77.8251 252.014 77.8251 250.653 77.8251C250.637 82.7218 250.645 87.6186 250.645 92.5154C248.518 92.5232 246.39 92.5232 244.263 92.5232C244.263 80.4011 244.247 68.279 244.271 56.1569ZM250.653 61.5875C250.637 65.1924 250.645 68.7973 250.653 72.4022C253.956 72.2166 257.406 72.9205 260.609 71.8917C264.562 70.3058 264.647 63.9624 260.756 62.2683C257.538 61.0383 254.002 61.7577 250.653 61.5875Z" fill="black"/>
</svg>
