<svg width="261" height="68" viewBox="0 0 261 68" fill="none" xmlns="http://www.w3.org/2000/svg">
<path d="M64.848 67.8135C60.2981 67.1541 56.3187 65.2361 53.2799 62.2383C50.745 59.7379 49.1015 56.9882 47.8901 53.2207C45.9985 47.3382 45.9979 39.7753 47.8882 34.0128C49.7203 28.4284 53.8454 23.5674 58.8938 21.0436C65.8853 17.5485 75.7255 17.7681 82.2009 21.5636C88.0284 24.9795 91.5583 31.0492 92.5406 39.3418C92.8405 41.8736 92.6459 47.2216 92.1736 49.429C90.2405 58.4646 84.611 64.7763 76.3631 67.155C75.4742 67.4112 74.096 67.7113 73.3004 67.8214C71.6167 68.0548 66.4777 68.0499 64.848 67.8135ZM71.655 64.1854C72.9843 63.7922 74.6235 62.2613 75.4977 60.5967C77.3022 57.1605 78.1081 52.0789 78.1282 44.01C78.1532 33.8977 76.5612 27.4629 73.2014 24.0938C71.7905 22.6788 70.79 22.2395 68.986 22.2423C64.9824 22.2487 62.4414 26.4111 61.4375 34.6069C60.9761 38.3744 60.9736 47.3496 61.4332 50.6434C62.8551 60.8376 66.527 65.7018 71.655 64.1854ZM145.436 67.8113C143.574 67.6233 137.886 66.6806 135.898 66.2306L134.524 65.9193L134.631 58.6087C134.889 41.0071 134.922 31.3982 134.754 22.0536C134.591 12.8995 134.543 11.9318 134.189 10.5776C133.739 8.86181 133.091 7.66514 132.311 7.11221C132.009 6.89751 131.186 6.59311 130.483 6.43577C128.146 5.91311 128.273 5.99683 128.211 4.93545C128.175 4.32403 128.241 3.92003 128.399 3.79614C128.609 3.62983 147.772 -0.0102557 148.383 2.17218e-05C148.558 0.00301153 148.583 2.44307 148.493 10.842C148.429 16.8029 148.421 21.6801 148.475 21.6801C148.528 21.6801 149.229 21.3781 150.031 21.009C152.449 19.8966 154.677 19.414 157.914 19.3015C160.068 19.2267 161.067 19.2736 162.172 19.5012C169.401 20.9907 174.75 26.8827 176.619 35.4143C177.107 37.6398 177.288 43.1713 176.965 45.9418C176.688 48.3032 175.901 51.4849 175.082 53.5495C171.99 61.3408 165.357 66.4236 156.558 67.7446C154.531 68.0486 148.166 68.0869 145.436 67.8113ZM152.956 64.0951C154.319 63.8375 155.378 63.2972 156.515 62.279C159.365 59.728 161.507 54.4603 162.35 47.9339C162.693 45.2758 162.647 39.2188 162.267 37.0002C161.238 30.9998 159.027 27.0561 155.801 25.4681C154.463 24.8094 154.257 24.7631 152.67 24.7631C151.535 24.7631 150.559 24.884 149.728 25.1277L148.486 25.4922L148.394 32.3219C148.276 41.0704 148.562 62.9728 148.802 63.6013C148.955 64.0023 149.124 64.0875 149.883 64.1469C151.671 64.2869 151.967 64.2816 152.956 64.0951ZM199.382 67.7186C190.073 66.0467 183.416 59.4725 181.24 49.8042C180.96 48.5609 180.837 47.1691 180.767 44.4771C180.656 40.2184 181.003 37.5748 182.107 34.2901C184.226 27.9835 188.024 23.5145 193.541 20.836C199.364 18.0089 207.325 17.8238 212.479 20.3956C218.281 23.2912 221.695 29.0729 222.561 37.4698C222.678 38.6005 222.745 39.9457 222.711 40.4596L222.649 41.3939L208.764 41.4417L194.879 41.4898L194.932 43.1235C195.054 46.9082 195.871 50.2561 197.383 53.1663C198.07 54.4893 198.616 55.2104 199.945 56.5459C202.946 59.5633 205.931 60.7312 210.64 60.7312C214.055 60.7312 216.51 60.0527 219.079 58.3994C219.798 57.9361 220.527 57.5574 220.698 57.5574C221.09 57.5574 221.993 58.7142 221.993 59.2169C221.993 60.0406 219.3 62.6957 216.674 64.4621C214.524 65.9088 211.113 67.2191 208.156 67.7341C206.085 68.0953 201.432 68.0869 199.382 67.7186ZM205.274 37.2603L208.538 37.1473L208.42 34.8378C208.006 26.6945 206.005 22.2442 202.759 22.2479C199.232 22.2519 196.413 26.768 195.241 34.2933C195.097 35.2183 194.978 36.3152 194.976 36.7309L194.972 37.4868L198.491 37.4302C200.426 37.3986 203.478 37.3224 205.274 37.2603ZM236.91 67.9C233.567 67.5431 228.247 66.3833 226.475 65.6248L225.61 65.2548L225.492 60.9857C225.427 58.638 225.352 55.4985 225.326 54.0096L225.277 51.3025L225.796 51.0549C226.081 50.9189 226.657 50.7916 227.075 50.7722L227.835 50.7371L228.483 52.3254C231.011 58.5218 233.976 61.8627 237.849 62.8789C239.326 63.2668 242.096 63.2701 243.19 62.8854C246.253 61.8087 247.933 59.4985 247.948 56.3429C247.965 52.6057 245.902 50.8101 238.109 47.7786C233.281 45.9005 231.597 44.934 229.592 42.8899C227.428 40.6848 226.39 38.175 226.195 34.679C225.96 30.4548 227.287 26.8935 230.229 23.8591C233.19 20.8052 237.033 19.1499 242.268 18.6742C246.879 18.2552 253.955 19.229 257.663 20.7925L258.34 21.0776L258.46 24.8825C258.527 26.9752 258.596 29.7804 258.613 31.1164L258.645 33.5455L257.736 33.8815C256.3 34.4125 256.206 34.346 255.407 32.2378C253.167 26.3285 250.565 23.5324 246.511 22.6783C244.04 22.1577 241.976 22.7173 240.475 24.3146C239.305 25.5606 238.848 26.6672 238.738 28.5254C238.618 30.5387 238.979 31.627 240.214 32.9729C241.737 34.6319 244.231 36.0638 249.2 38.1317C255.286 40.6642 258.189 42.8143 259.768 45.9565C260.793 47.9975 261.083 49.6275 260.98 52.7651C260.903 55.1195 260.827 55.6033 260.289 57.184C258.536 62.3377 254.577 65.7308 248.462 67.3217C246.39 67.8604 246.095 67.8881 241.976 67.9333C239.602 67.9587 237.322 67.9441 236.91 67.9ZM0.249373 66.777C0.0934445 66.7142 0.0148235 66.2485 0.0148235 65.3865C0.0148235 63.838 -0.0840625 63.9073 2.92324 63.3518C5.23008 62.9256 6.05513 62.4898 7.07382 61.1599C9.04873 58.581 9.47561 53.6161 9.48011 33.1721C9.48424 13.9727 9.11271 9.93384 7.07026 6.96646C6.16396 5.65001 4.63676 4.93507 2.07867 4.63011L0.108456 4.39523L0.0544155 2.86332L0 1.33161L0.617334 1.22211C0.956961 1.16194 12.8846 1.13652 27.1237 1.16549L53.0129 1.21856L53.1341 1.96601C53.2009 2.37711 53.3104 6.59385 53.3776 11.3364L53.4996 19.9594L52.1649 20.3632C50.1557 20.9709 50.1677 20.9784 49.2638 18.5966C47.0437 12.7463 44.4978 9.37531 41.0141 7.67299C38.6113 6.49893 37.5005 6.3571 30.7153 6.3571H24.8103L24.7084 7.33813C24.5174 9.1778 24.2162 21.012 24.2183 26.585L24.2203 32.1442L25.956 32.1343C26.9107 32.1289 28.7931 32.059 30.1392 31.9788C32.1625 31.8583 32.7639 31.7514 33.6106 31.361C35.6905 30.4021 37.1055 28.2916 37.9726 24.8552L38.4201 23.0811L39.9516 23.0268L41.4832 22.9724V45.4264L39.9511 45.372L38.419 45.3177L37.9841 43.5425C37.1671 40.207 35.5945 37.8192 33.6513 36.9632C32.7538 36.568 30.5333 36.3432 26.2374 36.2131L24.2203 36.1518V40.3697C24.2203 44.9658 24.4742 51.1837 24.7994 54.5582C25.2527 59.2627 26.46 61.8619 28.6278 62.8028C29.0417 62.9824 30.3516 63.2739 31.5383 63.451C32.7251 63.628 33.844 63.8489 34.0245 63.9419C34.4825 64.1774 34.5095 66.6139 34.0562 66.7869C33.7012 66.9229 0.587499 66.9127 0.249373 66.777ZM92.7465 66.7415C92.5753 66.6331 92.5194 66.202 92.5588 65.2955L92.6151 64.0043L93.2718 63.8653C93.6331 63.7887 94.4089 63.6364 94.9959 63.5273C96.8128 63.1892 97.8568 62.2073 98.4445 60.2835C98.9232 58.7167 99.1341 53.7035 99.145 43.6363C99.1585 31.324 98.9008 28.4163 97.6508 26.7681C96.9732 25.8748 96.4848 25.6208 94.8407 25.3065C94.0293 25.1514 93.1756 24.9851 92.9435 24.9369C92.5674 24.859 92.5213 24.7369 92.5213 23.8211C92.5213 22.9307 92.5778 22.7698 92.9435 22.62C93.5049 22.3901 112.094 18.6899 112.687 18.6899H113.151L113.06 21.4461C113.01 22.9619 112.93 25.1693 112.882 26.3513L112.796 28.5002L113.469 27.2908C115.625 23.4194 118.043 21.0159 121.257 19.5489C123.022 18.7433 124.2 18.503 126.38 18.503C128.966 18.503 131.551 19.3431 131.551 20.1837C131.551 20.7487 126.995 32.7364 126.744 32.8322C126.621 32.8789 125.732 32.5403 124.767 32.0792C122.755 31.1178 120.868 30.6478 119.036 30.6517C116.754 30.6566 114.205 31.4935 113.199 32.5684C112.769 33.0281 112.767 33.0557 112.66 39.9212C112.554 46.7202 112.781 55.0136 113.165 58.3491C113.492 61.1907 114.251 62.5896 115.816 63.2412C116.339 63.4583 119.644 63.9094 120.722 63.9105C120.804 63.9105 120.846 64.5623 120.816 65.3587L120.761 66.8069L106.876 66.8514C99.2388 66.8762 92.8806 66.8269 92.7465 66.7415Z" fill="black"/>
</svg>
