<svg width="418" height="100" viewBox="0 0 418 100" fill="none" xmlns="http://www.w3.org/2000/svg">
<path d="M166.8 60.6001V60.0001C166.8 47.0001 172.4 38.4001 181 38.4001C189.6 38.4001 195 46.8001 195 60.8001C195 73.7001 189.5 82.1001 181 82.1001C172.3 82.0001 167.1 74.1001 166.8 60.6001ZM145.6 60.4001C146.4 85.3001 159.7 99.9001 180.9 99.9001C201.9 99.9001 216.4 83.7001 216.4 59.9001C216.4 36.1001 202 20.1001 180.9 20.1001C159.8 20.1001 145.6 36.3001 145.6 59.9001V60.4001ZM26.3 23.5001H43.4L67.7001 62.1001V23.5001H87.2001V97.5001H70.0001L46.5 61.4001V97.5001H26.3V23.5001Z" fill="black"/>
<path d="M119.7 20.2H95.2L92.2 0H169.9L167 20.2H142.5V97.5H119.7V20.2ZM356.3 72C352.1 90.3 341.3 99 323.4 99C310.5 99 302.3 95.8 296.1 87.5C290.7 80.4 288.2 71.8 288.2 60.6C288.2 36.2 301 21.7 322.6 21.7C341 21.7 351.2 29.7 355.7 47.8L335.5 51.2C333.9 43.8 329.5 39.7 323.3 39.7C314.6 39.7 309.5 47.4 309.5 60.7C309.5 74 314.5 81.4 323.2 81.4C329.9 81.4 333.9 77.4 336.1 68.8L356.3 72ZM358.9 23.4H378.8V50.9H397.3V23.4H417.2V97.5H397.4V66.3H378.9V97.5H358.9V23.4ZM23.1 97.5H0V25.6C1.46816 27.2708 3.26466 28.6215 5.27757 29.5677C7.29049 30.514 9.4767 31.0355 11.7 31.1C13.8564 31.0683 15.9829 30.5899 17.945 29.6949C19.9072 28.7998 21.6625 27.5077 23.1 25.9V97.5Z" fill="black"/>
<path d="M23.1 21.4002C20.1 25.0002 16.1 27.3002 11.7 27.3002C9.3916 27.245 7.12883 26.6456 5.09577 25.5509C3.06271 24.4562 1.31678 22.897 0 21.0002V0.200195H23.2V21.4002H23.1ZM270.8 23.4002H263.1V69.7002C263.1 72.5911 261.952 75.3635 259.907 77.4077C257.863 79.4518 255.091 80.6002 252.2 80.6002C249.309 80.6002 246.537 79.4518 244.493 77.4077C242.448 75.3635 241.3 72.5911 241.3 69.7002V23.4002H220.2V70.4002C220.2 77.6002 221 82.8002 223 87.3002C226.1 94.4002 233.1 98.7002 241.1 98.7002C250.8 98.7002 258.2 94.7002 264.5 85.9002V97.4002H284V23.4002H270.8Z" fill="black"/>
</svg>
