<svg width="231" height="39" viewBox="0 0 231 39" fill="none" xmlns="http://www.w3.org/2000/svg">
<path d="M29.7213 0L21.7443 21.1251L13.7199 0H0V38.2869H9.87364V12.9752L19.5688 38.2869H23.9255L33.5676 12.9752V38.2869H43.4412V0H29.7213Z" fill="black"/>
<mask id="mask0" mask-type="alpha" maskUnits="userSpaceOnUse" x="44" y="7" width="29" height="32">
<path d="M44.9419 7.41943H72.8335V38.9733H44.9419V7.41943Z" fill="black"/>
</mask>
<g mask="url(#mask0)">
<path d="M63.4643 31.1719V28.698C62.5494 27.3787 60.4799 26.7455 58.5386 26.7455C56.2404 26.7455 54.115 27.7831 54.115 29.9614C54.115 32.1398 56.2404 33.1774 58.5386 33.1774C60.4799 33.1774 62.5494 32.4884 63.4643 31.1692V31.1719ZM63.4643 38.2843V35.5286C61.7434 37.5898 58.4187 38.9732 54.8569 38.9732C50.609 38.9732 45.3347 36.0418 45.3347 29.8415C45.3347 23.1308 50.6062 20.8967 54.8569 20.8967C58.5386 20.8967 61.8075 22.096 63.4643 24.1656V21.4099C63.4643 19 61.4059 17.3349 57.8413 17.3349C55.0856 17.3349 52.3299 18.4227 50.0958 20.3193L46.8269 14.1748C50.3887 11.1346 55.1498 9.87109 59.3893 9.87109C66.0471 9.87109 72.3115 12.3451 72.3115 20.9524V38.2871H63.4643V38.2843Z" fill="black"/>
</g>
<mask id="mask1" mask-type="alpha" maskUnits="userSpaceOnUse" x="72" y="7" width="29" height="32">
<path d="M72.8335 7.41943H100.725V38.9733H72.8335V7.41943Z" fill="black"/>
</mask>
<g mask="url(#mask1)">
<path d="M73.5083 34.6696L77.1816 28.3605C79.2512 30.1902 83.6637 32.0868 86.9437 32.0868C89.5795 32.0868 90.67 31.3337 90.67 30.1344C90.67 26.6925 74.5459 30.2459 74.5459 19C74.5459 14.119 78.7938 9.87109 86.4193 9.87109C91.1275 9.87109 95.0267 11.3633 98.0139 13.5416L94.6362 19.8089C92.9683 18.194 89.811 16.7575 86.4863 16.7575C84.4167 16.7575 83.0417 17.5636 83.0417 18.6542C83.0417 21.6944 99.1017 18.5426 99.1017 29.9085C99.1017 35.18 94.4605 38.9732 86.5393 38.9732C81.5495 38.9732 76.4425 37.3053 73.5083 34.6696Z" fill="black"/>
</g>
<mask id="mask2" mask-type="alpha" maskUnits="userSpaceOnUse" x="100" y="0" width="29" height="39">
<path d="M100.725 0H128.617V38.973H100.725V0Z" fill="black"/>
</mask>
<g mask="url(#mask2)">
<path d="M119.596 38.2869V22.146C119.596 18.7711 117.82 17.6805 114.997 17.6805C112.417 17.6805 110.696 19.1086 109.67 20.3721V38.2841H100.823V0H109.67V13.9458C111.327 11.9934 114.607 9.87364 119.248 9.87364C125.568 9.87364 128.432 13.4326 128.432 18.5424V38.2869H119.596Z" fill="black"/>
</g>
<mask id="mask3" mask-type="alpha" maskUnits="userSpaceOnUse" x="128" y="7" width="32" height="32">
<path d="M128.617 7.41943H159.298V38.9733H128.617V7.41943Z" fill="black"/>
</mask>
<g mask="url(#mask3)">
<path d="M148.35 31.1719V28.698C147.433 27.3787 145.366 26.7455 143.413 26.7455C141.115 26.7455 138.99 27.7831 138.99 29.9614C138.99 32.1398 141.115 33.1774 143.413 33.1774C145.366 33.1774 147.433 32.4884 148.35 31.1692V31.1719ZM148.35 38.2843V35.5286C146.627 37.5898 143.293 38.9732 139.743 38.9732C135.492 38.9732 130.209 36.0418 130.209 29.8415C130.209 23.1308 135.492 20.8967 139.743 20.8967C143.413 20.8967 146.682 22.096 148.35 24.1656V21.4099C148.35 19 146.278 17.3349 142.727 17.3349C139.972 17.3349 137.213 18.4227 134.971 20.3193L131.702 14.1748C135.263 11.1346 140.025 9.87109 144.275 9.87109C150.93 9.87109 157.183 12.3451 157.183 20.9524V38.2871H148.35V38.2843Z" fill="black"/>
</g>
<mask id="mask4" mask-type="alpha" maskUnits="userSpaceOnUse" x="159" y="0" width="31" height="39">
<path d="M159.298 0H189.978V38.973H159.298V0Z" fill="black"/>
</mask>
<g mask="url(#mask4)">
<path d="M174.17 31.1717C177.667 31.1717 180.314 28.5778 180.314 24.394C180.314 20.2661 177.667 17.6721 174.17 17.6721C172.273 17.6721 169.986 18.7069 168.887 20.1991V28.6977C169.986 30.1899 172.276 31.1717 174.17 31.1717ZM160.051 38.2841V0H168.887V13.8343C169.858 12.585 171.104 11.5773 172.529 10.8902C173.954 10.2031 175.519 9.85514 177.101 9.87364C184.04 9.87364 189.326 15.3293 189.326 24.394C189.326 33.8075 183.932 38.973 177.101 38.973C173.997 38.973 171.185 37.7095 168.887 35.071V38.2869H160.051V38.2841Z" fill="black"/>
</g>
<mask id="mask5" mask-type="alpha" maskUnits="userSpaceOnUse" x="189" y="0" width="13" height="39">
<path d="M189.979 0H201.135V38.973H189.979V0Z" fill="black"/>
</mask>
<g mask="url(#mask5)">
<path d="M191.103 0H199.939V38.2869H191.103V0Z" fill="black"/>
</g>
<mask id="mask6" mask-type="alpha" maskUnits="userSpaceOnUse" x="201" y="7" width="30" height="32">
<path d="M201.135 7.41943H230.586V38.9733H201.135V7.41943Z" fill="black"/>
</mask>
<g mask="url(#mask6)">
<path d="M216.412 16.9863C212.562 16.9863 211.073 19.2845 210.722 21.2899H222.152C221.915 19.3375 220.487 16.9863 216.412 16.9863ZM201.713 24.3943C201.713 16.3643 207.737 9.87109 216.412 9.87109C224.614 9.87109 230.586 15.8957 230.586 25.3091V27.3257H210.844C211.475 29.7885 213.773 31.8581 217.784 31.8581C219.736 31.8581 222.949 30.9962 224.561 29.504L228.397 35.2999C225.649 37.7627 221.053 38.9732 216.813 38.9732C208.262 38.9732 201.713 33.4061 201.713 24.3943Z" fill="black"/>
</g>
</svg>
