<svg width="50" height="33" viewBox="0 0 50 33" fill="none" xmlns="http://www.w3.org/2000/svg">
<path fill-rule="evenodd" clip-rule="evenodd" d="M3.2 4.6C3.2 4.60307 3.20007 4.60256 3.20062 4.59865C3.20317 4.58049 3.21603 4.48891 3.28001 4.33965C3.35215 4.17132 3.4675 3.9822 3.62749 3.80829C3.92921 3.48033 4.38953 3.2 5.1 3.2C5.83133 3.2 6.22301 3.45659 6.48489 3.72257C6.71212 3.95334 6.86053 4.2056 7 4.47739V32.1H7.00019H10.2H10.2002V4.47739C10.3397 4.2056 10.4881 3.95334 10.7153 3.72257C10.9772 3.45659 11.3689 3.2 12.1002 3.2C12.8107 3.2 13.271 3.48033 13.5727 3.80829C13.7327 3.9822 13.848 4.17132 13.9202 4.33965C13.9842 4.48891 13.997 4.58049 13.9996 4.59865C14.0001 4.60256 14.0002 4.60307 14.0002 4.6V32.1H17.2002V4.6C17.2002 3.62631 16.7211 2.50406 15.9277 1.64171C15.0794 0.719666 13.7897 0 12.1002 0C10.479 0 9.36103 0.608385 8.6001 1.31681C7.83917 0.608385 6.72121 0 5.1 0C3.41047 0 2.12079 0.719666 1.27251 1.64171C0.479144 2.50406 0 3.62631 0 4.6V32.1H3.2V4.6Z" fill="black"/>
<path fill-rule="evenodd" clip-rule="evenodd" d="M35.8001 4.6C35.8001 4.60307 35.8002 4.60256 35.8007 4.59865C35.8033 4.58049 35.8161 4.48891 35.8801 4.33965C35.9522 4.17132 36.0676 3.9822 36.2276 3.80829C36.5293 3.48033 36.9896 3.2 37.7001 3.2C38.4314 3.2 38.8231 3.45659 39.085 3.72257C39.3122 3.95334 39.4606 4.2056 39.6001 4.47739V32.1H39.6003H42.8001H42.8003V4.47739C42.9398 4.2056 43.0882 3.95334 43.3154 3.72257C43.5773 3.45659 43.969 3.2 44.7003 3.2C45.4108 3.2 45.8711 3.48033 46.1728 3.80829C46.3328 3.9822 46.4481 4.17132 46.5203 4.33965C46.5843 4.48891 46.5971 4.58049 46.5997 4.59865C46.6002 4.60256 46.6003 4.60307 46.6003 4.6V32.1H49.8003V4.6C49.8003 3.62631 49.3211 2.50406 48.5278 1.64171C47.6795 0.719666 46.3898 0 44.7003 0C43.0791 0 41.9611 0.608385 41.2002 1.31681C40.4393 0.608385 39.3213 0 37.7001 0C36.0106 0 34.7209 0.719666 33.8726 1.64171C33.0792 2.50406 32.6001 3.62631 32.6001 4.6V32.1H35.8001V4.6Z" fill="black"/>
<path fill-rule="evenodd" clip-rule="evenodd" d="M21.09 8.5C21.3718 5.39962 22.7085 2.3096 24.1484 0H28C27.6326 0.51284 27.2546 1.06895 26.8835 1.66164C24.9898 4.6859 24.2166 7.1168 24 9.5C23.7136 12.6512 24.5899 14 25.4523 16.4393C25.7504 17.0335 26.0863 17.7034 26.4518 18.5133C26.6428 18.9366 26.8432 19.3806 27.052 19.8502C28.2999 22.6581 27.7728 25.892 26.85 28.5286C26.4159 29.7691 25.8686 30.9511 25.2963 32H21.5647C22.3425 30.8305 23.2194 29.215 23.8297 27.4714C24.6569 25.108 24.8798 22.8419 24.1278 21.1498C23.9237 20.6908 23.7229 20.248 23.5273 19.8168C21.8435 16.1041 20.6446 13.3996 21.09 8.5Z" fill="black"/>
</svg>
