<svg width="69" height="71" viewBox="0 0 69 71" fill="none" xmlns="http://www.w3.org/2000/svg">
<path d="M36.4662 51.2235C30.0227 46.9725 24.2895 41.7183 20.924 34.6447C17.6205 27.7128 16.5212 18.8141 20.8338 12.0523C24.904 5.6815 32.7455 2.68882 39.8993 5.20539C47.831 7.99402 51.36 15.7988 50.7005 23.8756C49.9507 33.069 44.9447 39.6835 38.8282 46.0486C37.3174 47.6243 39.702 50.0332 41.2184 48.4518C47.5774 41.8373 52.6848 35.0131 53.9025 25.576C55.0469 16.717 51.9858 7.50091 43.7609 3.2046C36.3929 -0.655272 27.6663 0.489653 21.4934 6.06692C14.83 12.0919 13.4207 21.6141 15.6418 30.0253C18.4154 40.5564 25.9187 48.3272 34.758 54.1595C36.5845 55.3611 38.2814 52.4194 36.4662 51.2235Z" fill="#F48990"/>
<path d="M30.7553 13.6051C27.9817 14.9654 26.3864 18.4228 26.9557 21.4552C27.5702 24.7369 30.7328 27.0211 33.946 27.2082C37.1086 27.3952 40.4797 25.4908 41.4324 22.3394C42.278 19.5508 41.3761 15.9629 38.9125 14.3249C37.0917 13.112 35.3948 16.0593 37.2044 17.2609C38.2924 17.9864 38.5574 20.0439 38.2417 21.2228C37.7512 23.0309 35.6936 23.9774 33.9517 23.8074C30.045 23.4163 28.833 18.3208 32.4634 16.5354C34.4196 15.5832 32.7058 12.6472 30.7553 13.6051Z" fill="#F48990"/>
<path d="M14.7848 39.8935C9.72243 40.0635 7.53514 42.7331 5.96796 47.3355C4.06818 52.9071 1.83015 58.7054 0.747782 64.5037C0.409541 66.3061 0.832342 68.1652 2.36006 69.3101C3.93852 70.4947 6.00179 70.2453 7.86775 70.2737C12.7271 70.353 17.5865 70.387 22.4403 70.404C32.1929 70.4324 41.9455 70.3814 51.6925 70.2737C55.1876 70.234 58.6828 70.1943 62.1779 70.132C65.5716 70.0696 68.8074 68.5903 68.0577 64.5377C67.0486 59.0681 64.8669 53.5079 62.8488 48.35C60.9884 43.606 59.6186 40.3016 54.094 39.8425C51.9236 39.6611 51.9349 43.0618 54.094 43.2432C58.3671 43.6003 59.083 47.8286 60.374 51.3257C61.6987 54.9135 62.8882 58.558 63.9368 62.2365C64.1679 63.0527 64.5061 63.9312 64.6302 64.7814C64.8388 66.2211 64.3765 66.5215 63.0404 66.7142C61.9806 66.8672 60.8081 66.7539 59.737 66.7709C56.9408 66.8162 54.1447 66.8502 51.3429 66.8786C36.979 67.0316 22.6094 67.111 8.24545 66.8786C7.00523 66.8559 5.83267 67.0826 4.81794 66.2721C3.78067 65.4446 3.97798 65.6033 4.2824 64.3733C4.45152 63.6932 4.64319 63.0187 4.82922 62.3385C5.50006 59.9127 6.21601 57.4981 6.97141 55.0949C7.69299 52.7994 8.45403 50.5152 9.22635 48.2367C10.2636 45.1987 11.3967 43.4076 14.7791 43.2942C16.9551 43.2206 16.9664 39.8198 14.7848 39.8935Z" fill="#F48990"/>
<path d="M16.0588 49.8974C14.7848 51.6772 13.6629 53.5533 12.6313 55.486C11.859 56.9257 10.3651 58.9718 10.4778 60.6496C10.5286 61.4147 10.9683 62.0665 11.7181 62.2876C13.4149 62.7977 15.6416 62.4633 17.3836 62.452C19.5709 62.4406 21.7976 62.486 23.9736 62.2026C25.2702 62.0325 26.0482 60.8933 25.4337 59.6463C23.6241 55.9508 21.6341 52.4877 18.714 49.5574C17.1694 48.01 14.7791 50.4132 16.3238 51.9606C19.0522 54.6982 20.828 57.9119 22.5192 61.3637C23.004 60.5135 23.4945 59.6577 23.9793 58.8075C21.9949 59.0625 19.9599 59.0399 17.9642 59.0569C16.3971 59.0682 14.1365 59.4706 12.6257 59.0172C13.0372 59.5613 13.4544 60.1111 13.8659 60.6552C13.787 59.5046 15.5515 57.1921 16.1095 56.1945C16.989 54.6188 17.9304 53.0885 18.979 51.6205C20.253 49.8351 17.3216 48.1347 16.0588 49.8974Z" fill="#F48990"/>
<path d="M54.8208 48.4126C51.9514 48.424 48.8508 48.6734 46.8383 51.0029C46.004 51.9664 45.5868 53.151 45.5643 54.4207C45.5417 55.4409 45.7954 55.7413 45.1415 56.6878C44.3579 57.8214 43.625 57.7024 42.3228 57.7024C39.4929 57.6967 36.708 57.9745 34.4249 59.8676C32.2489 61.67 32.1925 64.2829 32.7393 66.8845C33.1903 69.0213 36.4543 68.1201 36.0033 65.9776C34.5715 59.2101 43.4165 62.2934 46.8665 60.1339C48.1349 59.3404 48.941 58.1275 49.0594 56.6085C49.1891 55.0101 48.3379 53.8765 50.1249 52.6069C51.4271 51.6774 53.3156 51.8191 54.8264 51.8077C56.9968 51.8021 57.0025 48.4013 54.8208 48.4126Z" fill="#F48990"/>
</svg>
