<svg width="1981" height="942" viewBox="0 0 1981 942" fill="none" xmlns="http://www.w3.org/2000/svg">
<path fill-rule="evenodd" clip-rule="evenodd" d="M361.138 99.2453C431.104 167.812 469.632 266.526 467.436 378.034C467.435 419.364 460.834 455.899 448.719 487.245C494.544 462.942 543.987 442.462 594.927 425.626C719.186 384.556 852.436 365.14 964.005 364.837C994.34 364.755 1025.16 367.011 1055.71 371.586C1078.59 349.727 1103.84 329.752 1131.03 311.643C1257.62 227.356 1426.43 183.461 1595.43 177.973C1732.59 173.519 1868.34 191.712 1982.47 238.484C1982.9 238.662 1983.11 239.159 1982.93 239.593C1982.75 240.027 1982.26 240.235 1981.82 240.057C1867.98 193.4 1732.48 175.223 1595.49 179.672C1426.71 185.153 1258.23 228.991 1131.98 313.058C1105.23 330.865 1080.39 350.475 1057.83 371.908C1133.83 383.561 1208.06 409.57 1268.92 449.612C1354.82 506.127 1414.13 590.635 1414.13 702.17C1414.13 830.161 1307.09 941.82 1173.23 941.82C1102.13 941.82 1038.82 918.793 993.282 875.483C947.738 832.167 920.037 768.629 920.037 687.748C920.037 557.381 971.42 452.791 1054.16 373.074C1024.12 368.642 993.834 366.456 964.009 366.537C852.614 366.84 719.543 386.229 595.461 427.24C543.935 444.27 493.973 465.023 447.763 489.679C439.338 510.79 428.381 529.503 415.232 545.691C382.221 586.336 335.447 611.012 280.42 617.849C280.07 617.892 279.73 617.716 279.565 617.405C279.399 617.094 279.442 616.713 279.674 616.448C323.796 565.708 381.409 523.221 446.413 488.472C458.902 456.937 465.736 419.992 465.736 378.026L465.736 378.009C467.926 266.911 429.544 168.663 359.948 100.46C290.357 32.2611 189.495 -5.95894 66.5993 3.10723C66.5661 3.10967 66.5329 3.11017 66.4997 3.10872C49.5274 2.3686 23.3072 7.56745 -1.24089 15.4284C-1.68797 15.5715 -2.16645 15.3252 -2.30962 14.8781C-2.45279 14.431 -2.20642 13.9525 -1.75934 13.8094C22.8281 5.93583 49.2491 0.667233 66.5238 1.40817C189.834 -7.67631 291.173 30.6809 361.138 99.2453ZM445.423 490.932C382.021 525.035 325.791 566.528 282.432 615.875C336.098 608.706 381.647 584.346 413.913 544.62C426.553 529.057 437.162 511.126 445.423 490.932ZM1056.28 373.391C973.278 452.943 921.737 557.415 921.737 687.748C921.737 768.222 949.287 831.295 994.454 874.251C1039.63 917.215 1102.49 940.12 1173.23 940.12C1306.13 940.12 1412.43 829.238 1412.43 702.17C1412.43 591.332 1353.52 507.309 1267.98 451.032C1207.01 410.913 1132.52 384.913 1056.28 373.391Z" fill="#FF8F8F"/>
</svg>
