<svg width="135" height="51" viewBox="0 0 135 51" fill="none" xmlns="http://www.w3.org/2000/svg">
<path d="M27.3772 1.71837C25.3996 0.0763287 21.2957 1.37798 17.9109 4.17064C12.5341 8.60775 -0.17792 21.8208 0.502868 38.1285C0.71861 43.3111 4.02427 45.4374 6.78577 45.4039C9.54728 45.3703 13.6032 44.584 23.3284 34.2428C23.3284 34.2428 20.4519 39.785 20.042 44.8861C19.7759 48.2037 20.8282 50.5026 21.9884 50.9077C21.9884 50.9077 22.3504 44.3995 24.5222 38.7758C26.694 33.1521 28.4152 29.5396 29.2614 26.9698C29.2614 26.9698 32.6725 26.0589 34.5734 25.8863C34.5734 25.8863 34.0988 23.5995 31.5243 23.7577C28.5422 23.9423 19.4355 26.9267 14.5118 27.1712C14.5118 27.1712 14.0299 30.6111 17.2013 30.5727C20.3728 30.5344 24.4839 28.4009 24.9297 28.2092C25.3756 28.0174 24.5438 29.0578 21.9621 31.5891C19.3803 34.1205 10.5661 43.5652 5.86527 43.6204C4.52287 43.6372 3.30512 41.7482 3.26198 38.0926C3.21883 34.4369 4.75539 20.7397 20.6173 6.03562C22.9425 3.88059 24.9465 3.07275 25.6752 3.06317C26.404 3.05358 27.0776 4.47988 26.1786 7.59136C25.4811 10.0077 26.0396 11.1607 27.1758 11.3213C28.2617 11.4747 30.4647 9.67688 30.5726 4.63809C30.6805 -0.400702 28.2641 2.45429 27.3772 1.71837Z" fill="#FF9994"/>
<path d="M52.178 29.7649C50.6678 32.3946 44.8428 36.079 40.9546 35.916C39.6122 35.8608 38.5862 35.0362 38.4664 31.7929C38.4112 30.2539 38.6246 29.0122 38.6246 29.0122C38.6246 29.0122 51.3438 21.5739 52.8109 9.64812C52.9475 8.53824 50.373 7.29892 48.4984 7.58418C45.5212 8.03724 35.4148 18.297 35.4148 31.3374C35.4148 35.7026 37.3925 38.7134 40.6022 38.7134C43.3254 38.7134 47.0002 37.9943 51.3654 34.1349C51.3678 34.1349 53.1273 28.1133 52.178 29.7649ZM50.1764 9.43477C50.5072 9.6649 49.6059 11.6929 46.9187 16.3385C44.2315 20.9842 39.5643 24.9203 39.5643 24.9203C42.7884 15.104 49.6946 9.09917 50.1764 9.43477Z" fill="#FF9994"/>
<path d="M63.0946 23.1344C61.4741 22.5399 58.2979 22.5111 56.1716 24.2587C53.9495 26.0853 51.0753 29.9111 51.3677 34.1349C51.5236 36.369 53.2735 38.3802 55.9583 38.2676C59.0554 38.1381 64.739 34.1612 65.1681 27.4948C65.3167 25.1768 64.8109 23.7649 63.0946 23.1344ZM59.5564 33.6147C57.7322 35.9999 56.6151 36.1293 55.7497 36.1293C54.9203 36.1293 54.3498 35.5276 54.3498 34.0582C54.3498 32.7326 54.6015 31.6826 55.335 30.2132C55.4621 29.9591 55.8336 29.9663 55.9415 30.2275C56.1548 30.7381 56.5671 31.4117 57.3438 31.9343C58.5496 32.7397 59.9112 32.9867 59.9112 32.9867C59.9112 32.9867 59.9207 33.1401 59.5564 33.6147ZM60.7717 31.196C60.7717 31.196 60.1341 31.148 59.3286 30.7046C57.9359 29.9375 57.3031 28.1564 58.2715 26.6726C59.3718 24.985 60.743 24.5176 61.359 25.0138C62.7613 26.1428 61.3494 30.2851 60.7717 31.196Z" fill="#FF9994"/>
<path d="M60.4529 33.025C63.8305 33.2863 66.7095 32.8237 69.9456 30.695C71.1082 29.9303 71.0579 27.5859 70.6096 27.5859C70.1613 27.5859 67.0139 31.5076 60.8317 31.2152" fill="#FF9994"/>
<path d="M81.7922 24.2299C80.0255 23.8176 76.0655 24.0453 71.5229 31.2679C71.5229 31.2679 71.7746 30.5032 72.0934 29.7409C75.2193 22.2882 81.8138 11.2901 80.0783 9.25737C79.5149 8.59816 77.8082 8.68446 77.5397 9.46113C73.5652 19.3302 67.4861 32.1692 66.4098 36.1916C65.9495 37.9128 68.0902 38.596 68.5864 37.8744C68.8884 37.4358 69.1569 36.9611 69.4613 36.5752C69.5165 36.5057 69.6196 36.5105 69.6747 36.58C70.7414 37.9296 72.2852 38.5336 74.0231 38.5097C79.2848 38.4354 84.3811 31.0186 84.3044 27.2647C84.2876 26.3082 83.5325 24.6374 81.7922 24.2299ZM81.7922 26.9363C80.9245 32.1309 74.7159 36.4817 72.906 36.3235C72.4146 36.2803 72.1845 36.0118 72.1845 35.3383C72.1845 32.6535 78.3044 27.2767 80.6224 26.7541C81.2217 26.6199 81.6508 26.6846 81.7922 26.9363Z" fill="#FF9994"/>
<path d="M105.217 27.876C104.359 28.5112 98.7831 35.9783 92.692 36.1701C90.3788 36.242 88.5234 35.101 88.6552 33.085C88.6552 33.085 96.863 33.6195 98.9725 26.9435C99.428 25.5004 97.9777 23.1632 95.396 23.1632C91.5222 23.1632 86.4091 26.1524 85.7187 32.0206C85.2465 36.0311 88.533 38.2724 92.3924 38.2748C96.3548 38.2796 100.387 36.5584 104.994 31.6994C106.118 30.5104 106.075 27.2407 105.217 27.876ZM95.9521 25.1528C96.3285 25.4285 95.6765 27.1904 93.5454 29.0578C91.5174 30.8341 88.9117 30.9084 88.9117 30.9084C90.851 25.8576 95.5326 24.8436 95.9521 25.1528Z" fill="#FF9994"/>
<path d="M116.709 6.07637C112.749 5.92056 109.189 5.87501 107.341 6.72599C105.529 7.5626 105.867 9.64092 105.867 9.64092C105.867 9.64092 108.506 9.45873 111.265 9.33888C111.265 9.33888 107.698 16.6286 104.081 27.2048C100.631 37.2895 99.2602 44.5217 99.2602 44.5217C99.2602 44.5217 95.1516 44.6008 93.8978 45.5189C92.6441 46.437 92.6609 47.9256 92.8839 47.8993C93.3848 48.0239 97.6542 47.5253 101.573 47.5181C105.493 47.5109 106.77 47.9568 107.142 45.5189C107.209 45.073 107.288 44.747 106.691 44.596C106.071 44.4402 104.474 44.3707 101.725 44.4762C101.725 44.4762 102.81 38.9843 107.152 27.5404C111.493 16.0964 115.549 8.98889 115.549 8.98889C115.549 8.98889 119.013 8.70364 121.534 8.68925C121.534 8.68686 121.978 6.28492 116.709 6.07637Z" fill="#FF9994"/>
<path d="M111.833 24.2562C110.654 26.7253 108.842 32.3538 108.132 35.6043C107.837 36.9515 108.271 38.0973 109.462 38.2508C110.654 38.4042 111.407 37.8864 112.468 36.5632C113.993 34.6622 117.977 30.2587 119.655 28.6238C120.175 28.1156 120.722 28.5903 120.628 29.2854C120.288 31.8144 119.111 37.4429 123.944 38.3155C128.903 39.212 133.817 34.8708 134.527 33.0945C134.527 33.0945 135.213 30.3402 133.41 29.8056C131.617 32.3298 128.347 36.0094 125.303 36.0526C123.431 36.0789 123.042 34.1205 123.57 30.8388C123.713 29.9423 123.817 29.1632 123.898 28.4944C124.356 24.786 121.379 23.7289 119.233 25.6274C116.635 27.9263 113.101 32.2771 112.205 33.4589C111.884 33.8808 111.428 33.6698 111.634 33.1448C112.135 31.872 114.614 26.0901 114.815 25.5123C115.017 24.9298 113.744 23.6689 111.833 24.2562Z" fill="#FF9994"/>
<path d="M37.788 29.5564C37.788 29.5564 35.9806 31.009 33.6266 32.0374C31.4164 33.0035 30.237 31.4669 30.6397 30.5152C34.0892 28.8468 36.4264 27.3078 38.6078 25.7545C39.1927 25.3374 37.788 29.5564 37.788 29.5564Z" fill="#FF9994"/>
<path d="M86.0232 33.001C86.0232 33.001 82.5521 32.8812 79.6827 32.0062C80.5313 31.4285 81.3535 30.2731 81.3343 29.6139C82.5233 30.2467 85.3208 30.9131 87.5381 30.9563C88.2549 30.9707 86.0232 33.001 86.0232 33.001Z" fill="#FF9994"/>
</svg>
