<svg width="980" height="864" viewBox="0 0 980 864" fill="none" xmlns="http://www.w3.org/2000/svg">
<path d="M378.074 -1.15128C529.637 230.73 749.923 332.092 907.415 309.97C935.91 305.983 978.472 291.331 978.472 262.237C978.472 239.813 943.042 219.33 903.758 214.455C660.052 184.21 389.333 299.511 175.684 505.847C120.269 559.365 66.9711 636.934 92.3942 710.21C115.895 777.924 193.874 803.248 262.47 812.032C446.886 835.653 639.92 806.75 807.48 719.578C907.822 667.376 946.074 589.142 933.595 539.712C923.871 501.219 858.121 459.873 731.636 478.516C453.001 519.614 196.828 655.931 2.00003 862.922" stroke="url(#paint0_linear)" stroke-width="3.0026" stroke-miterlimit="10"/>
<defs>
<linearGradient id="paint0_linear" x1="762.895" y1="-516.682" x2="-38.566" y2="1134.25" gradientUnits="userSpaceOnUse">
<stop offset="0.00137406" stop-color="#FF8473"/>
<stop offset="1" stop-color="#FFF8F3"/>
</linearGradient>
</defs>
</svg>
