<svg width="1981" height="301" viewBox="0 0 1981 301" fill="none" xmlns="http://www.w3.org/2000/svg">
<path fill-rule="evenodd" clip-rule="evenodd" d="M1125.49 148.219C1067.49 168.259 1019.35 189.408 985.902 211.016C969.055 221.898 956.514 232.903 948.542 243.261C940.559 253.634 937.238 263.25 938.59 271.406C939.934 279.517 945.947 286.451 957.258 291.383C968.581 296.321 985.108 299.196 1007.2 299.196C1051.41 299.196 1102.58 290.714 1142 276.455C1161.72 269.323 1178.44 260.767 1189.88 251.147C1201.33 241.521 1207.36 230.953 1206.06 219.762C1204.4 205.37 1195.43 192.065 1180.89 179.895C1166.93 168.214 1147.9 157.64 1125.49 148.219ZM1123.13 147.237C1065.86 167.116 1018.24 188.104 984.98 209.588C968.033 220.534 955.323 231.662 947.195 242.224C939.078 252.771 935.451 262.862 936.913 271.684C938.382 280.552 944.944 287.868 956.579 292.942C968.202 298.01 984.993 300.896 1007.2 300.896C1051.59 300.896 1102.96 292.385 1142.58 278.053C1162.39 270.889 1179.32 262.25 1190.98 252.448C1202.63 242.653 1209.14 231.574 1207.75 219.567C1206.02 204.576 1196.7 190.91 1181.98 178.591C1168.21 167.068 1149.64 156.663 1127.89 147.391C1143.18 142.142 1159.14 136.97 1175.68 131.886C1256.17 107.163 1350.49 84.5552 1448.6 65.3998C1644.83 27.0875 1856.14 2.59798 2002.06 2.59795C2002.53 2.59795 2002.91 2.21739 2002.91 1.74795C2002.91 1.27851 2002.53 0.897949 2002.06 0.897949C1855.99 0.897978 1644.57 25.4062 1448.28 63.7313C1350.13 82.8947 1255.74 105.516 1175.19 130.261C1157.98 135.547 1141.4 140.931 1125.54 146.4C1124.8 146.091 1124.06 145.783 1123.32 145.477C1075.87 125.98 1014.22 111.602 953.928 102.602C648.294 56.971 322.219 71.8314 -0.136339 124.227C-0.5997 124.303 -0.914274 124.739 -0.838959 125.203C-0.763643 125.666 -0.32696 125.981 0.136401 125.905C322.372 73.5289 648.263 58.6853 953.677 104.283C1013.9 113.273 1075.4 127.624 1122.67 147.049C1122.82 147.112 1122.97 147.174 1123.13 147.237Z" fill="#FF9994"/>
</svg>
