<svg width="107" height="107" viewBox="0 0 107 107" fill="none" xmlns="http://www.w3.org/2000/svg">
<path d="M81.6825 82.3938C82.2417 74.2448 82.035 62.9777 76.3824 56.3938C70.9122 50.0336 59.996 49.2386 52.3377 49.5119C44.7158 49.7851 34.7842 51.1889 29.6665 57.6733C24.4394 64.2696 24.2935 74.1702 25.5699 82.1081C25.9711 84.5802 29.6422 83.5243 29.2411 81.0771C28.0254 73.5864 28.2929 63.2758 34.687 58.2075C39.9141 54.0709 48.241 53.3255 54.5744 53.3876C60.9199 53.4497 70.4503 54.1827 74.3888 60.1827C78.376 66.2448 78.3396 75.4001 77.8533 82.3938C77.6953 84.9032 81.5123 84.8907 81.6825 82.3938Z" fill="#F48990"/>
<path d="M61.1871 39.7854C56.0329 43.4127 48.727 43.4127 44.9343 37.5991C41.7494 32.7171 41.871 25.4251 47.0495 22.1456C56.0207 16.4686 67.0706 24.1581 63.5696 34.7916C62.7795 37.1767 66.4628 38.1953 67.2408 35.8227C69.6599 28.4686 67.1679 20.9904 60.0565 17.7481C54.489 15.214 47.3169 16.2326 42.807 20.5432C37.3854 25.7109 38.1269 35.1519 42.5153 40.7792C47.6087 47.3133 56.665 47.6612 63.1077 43.1394C65.1256 41.7357 63.2171 38.3568 61.1871 39.7854Z" fill="#F48990"/>
<path d="M37.0328 67.6239C36.7775 72.2575 36.6195 76.9904 35.3188 81.4749C34.6259 83.8848 38.297 84.9159 38.9899 82.5059C40.3757 77.7109 40.5702 72.5929 40.8377 67.6239C40.9714 65.1146 37.1665 65.127 37.0328 67.6239Z" fill="#F48990"/>
<path d="M65.3445 67.6241C65.9888 73.0651 66.6452 78.4936 69.1858 83.4129C70.3285 85.6365 73.6228 83.6613 72.4801 81.4502C70.2799 77.1769 69.7207 72.357 69.1615 67.6241C68.8698 65.1644 65.0528 65.1396 65.3445 67.6241Z" fill="#F48990"/>
<path d="M32.8391 29.0902C47.2684 30.5063 61.7098 31.6243 75.8838 27.8107C78.2543 27.1771 77.2453 23.4131 74.8749 24.0591C61.0291 27.7858 46.9158 26.5808 32.8391 25.202C30.3957 24.9535 30.42 28.8417 32.8391 29.0902Z" fill="#F48990"/>
<path fill-rule="evenodd" clip-rule="evenodd" d="M53.793 105.381C82.5118 105.381 105.793 82.1002 105.793 53.3813C105.793 24.6625 82.5118 1.38135 53.793 1.38135C25.0742 1.38135 1.79297 24.6625 1.79297 53.3813C1.79297 82.1002 25.0742 105.381 53.793 105.381ZM53.793 106.381C83.0641 106.381 106.793 82.6524 106.793 53.3813C106.793 24.1103 83.0641 0.381348 53.793 0.381348C24.5219 0.381348 0.792969 24.1103 0.792969 53.3813C0.792969 82.6524 24.5219 106.381 53.793 106.381Z" fill="#FFA0A0"/>
</svg>
