<svg width="107" height="107" viewBox="0 0 107 107" fill="none" xmlns="http://www.w3.org/2000/svg">
<path d="M48.8276 93.3177C52.5333 93.4451 56.2265 93.3941 59.9322 93.1776C62.4572 93.0248 62.4697 89.0388 59.9322 89.1789C56.2391 89.3954 52.5333 89.4463 48.8276 89.319C46.2901 89.2426 46.2901 93.2286 48.8276 93.3177Z" fill="#F48990"/>
<path d="M46.7174 86.6576C51.6039 86.9377 56.4654 86.7849 61.3268 86.1991C63.8141 85.9062 63.8392 81.9075 61.3268 82.2004C56.4654 82.7862 51.6039 82.939 46.7174 82.6588C44.1799 82.5315 44.1925 86.5175 46.7174 86.6576Z" fill="#F48990"/>
<path d="M48.8403 78.3799C49.5689 74.3812 49.8327 70.3952 48.074 66.6384C45.7249 61.6464 40.6751 58.8702 37.7733 54.2984C29.3694 41.0415 40.4615 28.2303 54.0158 27.8482C65.8742 27.5171 78.5616 39.2841 71.8159 51.6496C69.3789 56.1067 65.4596 59.4942 62.5578 63.6075C59.4676 67.9883 58.8395 72.5474 59.3546 77.845C59.6058 80.3793 63.5377 80.4047 63.299 77.845C62.3568 68.1666 68.1855 63.6712 73.2857 56.6161C76.5266 52.1335 78.2978 47.4216 77.3055 41.8183C75.4463 31.2866 65.9872 24.2825 55.7493 23.8622C45.7626 23.4675 34.6831 28.4086 31.7813 38.8384C30.3367 44.0341 30.9648 49.9558 33.452 54.7186C37.811 63.0854 47.0691 66.2309 45.0466 77.3102C44.5818 79.8317 48.3755 80.9014 48.8403 78.3799Z" fill="#F48990"/>
<path d="M46.4536 50.9234C46.441 49.8919 46.1772 48.924 45.6622 48.0326C46.2777 48.7075 46.9183 49.357 47.559 50.0065C48.4132 50.847 49.2549 51.8403 50.3352 52.3879C51.0889 52.7699 52.1064 52.7572 52.7219 52.0695C54.0535 50.5923 53.953 47.5232 55.3725 46.4025C54.7318 46.5681 54.0912 46.7464 53.4505 46.9119C54.4052 47.1412 55.7368 50.2866 56.4402 50.9616C57.0809 51.5601 57.7592 52.1077 58.7014 52.0313C59.5681 51.9549 60.0329 51.4965 60.5982 50.8724C61.1886 50.2102 61.578 49.2169 61.98 48.4146C62.382 47.6251 63.9271 45.9441 62.4825 46.4789C61.8418 46.3134 61.2012 46.1351 60.5605 45.9695C61.6157 47.1284 62.0679 49.7008 62.4825 51.2036C63.1734 53.6741 66.9796 52.6171 66.2762 50.1466C65.6355 47.867 64.9697 44.9508 63.3367 43.1552C62.897 42.6712 62.0428 42.4038 61.4147 42.6458C58.8772 43.5881 58.9903 46.81 57.2819 48.6439C57.9225 48.4783 58.5632 48.3 59.2038 48.1345C58.4124 48.0071 56.8673 44.7597 56.3146 44.1994C55.674 43.5627 54.9203 42.9514 53.9404 43.0278C50.8753 43.2316 51.4155 47.5869 49.8955 49.2806C50.6869 49.1787 51.4909 49.0768 52.2823 48.9622C49.9583 47.7779 48.564 43.6136 45.5491 44.0975C42.5845 44.5687 42.17 48.6439 42.4589 50.9489C42.8232 53.4321 46.7676 53.4703 46.4536 50.9234Z" fill="#F48990"/>
<path d="M75.685 64.2314C75.2453 64.0531 75.8232 64.3078 75.8734 64.3333C76.0744 64.4352 76.2628 64.5498 76.4512 64.6644C76.8407 64.8936 77.2301 65.1483 77.6195 65.3903C78.323 65.8487 79.0139 66.3199 79.7299 66.7656C81.9031 68.1028 83.8753 64.6517 81.7147 63.3145C80.0691 62.2957 78.5365 61.0987 76.7276 60.3728C75.7352 59.978 74.567 60.8058 74.3032 61.7609C74.0142 62.907 74.6926 63.8366 75.685 64.2314Z" fill="#F48990"/>
<path d="M81.5766 34.5595C82.6066 33.3624 83.7372 32.2545 85.006 31.3248C85.8727 30.7008 86.2873 29.5929 85.7094 28.5996C85.2069 27.7336 83.8879 27.2497 83.0212 27.8864C81.4761 29.0198 80.044 30.2806 78.8004 31.7451C78.1095 32.5601 78.009 33.7699 78.8004 34.5722C79.5039 35.2854 80.8857 35.3745 81.5766 34.5595Z" fill="#F48990"/>
<path d="M56.4528 19.3158C56.591 18.0041 56.7417 16.6924 56.8799 15.3807C56.993 14.2983 55.8875 13.3813 54.9077 13.3813C53.752 13.3813 53.0611 14.2983 52.9355 15.3807C52.7973 16.6924 52.6466 18.0041 52.5084 19.3158C52.3953 20.3855 53.5008 21.3151 54.4806 21.3151C55.6363 21.3024 56.3272 20.3855 56.4528 19.3158Z" fill="#F48990"/>
<path d="M27.862 30.28C26.2541 29.0319 24.3949 28.1532 22.4353 27.6948C19.9731 27.109 18.9179 30.9549 21.3926 31.5407C23.0633 31.9355 24.5205 32.6614 25.8772 33.7183C26.7188 34.3806 28.0881 33.8457 28.5654 33.0052C29.1558 31.9737 28.7036 30.9294 27.862 30.28Z" fill="#F48990"/>
<path d="M28.4273 57.2396C26.0782 58.2074 23.8045 59.3408 21.6564 60.7035C19.5083 62.0533 21.4806 65.5172 23.6412 64.1546C25.5004 62.983 27.4474 61.9387 29.4825 61.0982C30.4623 60.6907 31.1658 59.7738 30.8517 58.6404C30.6005 57.698 29.4197 56.8321 28.4273 57.2396Z" fill="#F48990"/>
<path fill-rule="evenodd" clip-rule="evenodd" d="M53.9727 105.381C82.6915 105.381 105.973 82.1002 105.973 53.3813C105.973 24.6625 82.6915 1.38135 53.9727 1.38135C25.2538 1.38135 1.97266 24.6625 1.97266 53.3813C1.97266 82.1002 25.2538 105.381 53.9727 105.381ZM53.9727 106.381C83.2438 106.381 106.973 82.6524 106.973 53.3813C106.973 24.1103 83.2438 0.381348 53.9727 0.381348C24.7016 0.381348 0.972656 24.1103 0.972656 53.3813C0.972656 82.6524 24.7016 106.381 53.9727 106.381Z" fill="#FFA0A0"/>
</svg>
