<svg width="107" height="107" viewBox="0 0 107 107" fill="none" xmlns="http://www.w3.org/2000/svg">
<path d="M54.6889 82.7287C50.6529 81.1529 46.6281 79.5772 42.6033 77.978C39.0942 76.589 34.7667 75.5268 31.5603 73.5542C26.8852 70.6711 27.9166 65.3951 27.8045 60.4927C27.7036 56.4073 27.6252 52.322 27.5579 48.2366C27.5355 46.7542 26.9413 44.0812 27.4794 42.6689C26.7395 41.4433 26.9076 41.1281 27.9503 41.7001C28.2642 41.7934 28.5893 41.8985 28.9032 41.9919C31.2688 42.3421 33.8586 43.661 36.112 44.4781C40.4395 46.0422 46.0451 47.1978 49.9354 49.7307C54.2293 52.5321 53.7136 57.6563 53.8705 62.2786C53.9378 64.2979 54.7674 70.4726 51.9198 70.7645C49.6103 70.9979 45.0361 67.8814 42.906 66.9826C41.6503 66.4573 39.2287 66.0138 38.2758 65.0333C37.2107 63.9361 37.3789 62.1735 37.2668 60.3877C37.1771 58.9169 37.1322 57.4345 37.121 55.9638C37.1098 54.0962 35.8205 54.8899 37.2107 55.0533C39.879 55.3802 42.906 57.3995 45.2603 58.7418C47.2447 59.8741 49.0161 56.7108 47.0317 55.5786C44.711 54.2596 37.0201 49.1121 34.4191 51.6216C32.1993 53.7577 33.3541 63.3174 34.3519 65.7336C35.5627 68.6751 39.3408 69.3988 41.9755 70.496C45.1146 71.815 49.6663 74.9549 53.1978 74.6864C59.9918 74.1845 57.4357 62.0685 57.2002 57.8897C56.8078 51.003 56.1464 48.26 49.8793 45.7854C43.6123 43.3109 37.3004 40.8597 30.8988 38.782C25.6184 37.0895 23.8918 37.7314 23.9703 43.7894C24.06 50.1042 24.1833 56.419 24.3403 62.7338C24.4188 65.9321 23.3761 71.6632 25.3941 74.4063C27.3785 77.1026 32.7375 77.9547 35.6411 79.1102C41.6616 81.5264 47.7044 83.9076 53.7472 86.2655C55.8773 87.0825 56.7854 83.5458 54.6889 82.7287Z" fill="#F48990"/>
<path d="M61.6175 83.6973C66.0907 80.9426 70.564 78.1996 75.0485 75.4449C77.8737 73.7057 82.0218 72.2583 83.3335 68.8616C85.273 63.8191 84.1071 55.8118 84.264 50.3958C84.3762 46.4739 86.1251 38.6533 83.6698 35.21C81.3155 31.895 74.8691 30.0624 71.4721 28.2765C67.2231 26.0471 62.2901 22.1952 57.3236 22.3936C53.0858 22.5687 48.1977 24.7981 44.2177 26.3039C39.5427 28.0781 35.0582 30.3425 30.6298 32.7004C28.6118 33.7742 30.3943 36.9375 32.4011 35.8636C38.9373 32.3735 45.5406 29.4905 52.6037 27.3544C58.9492 25.4401 63.3104 28.0781 68.7702 30.9378C72.2008 32.7354 78.6472 34.603 80.4747 37.9646C82.2909 41.303 80.7998 48.6916 80.6765 52.6252C80.5419 57.0141 81.607 63.7141 79.5553 67.4726C77.8512 70.5775 72.9968 72.4567 69.9698 74.3126C66.5952 76.3903 63.2207 78.4564 59.8461 80.534C57.8954 81.7246 59.6667 84.8995 61.6175 83.6973Z" fill="#F48990"/>
<path d="M45.4956 39.4704C49.6662 37.6495 53.6462 35.6302 58.1194 34.6847C57.3795 34.1011 56.6396 33.5058 55.8996 32.9222C56.1687 36.0037 54.7224 42.5753 57.7382 44.4195C59.8347 45.7035 64.8686 44.9564 67.3238 44.9331C70.5302 44.8981 69.6445 44.2561 69.2858 45.5517C68.9943 46.6023 67.6714 48.2714 67.1332 49.2169C65.5973 51.9482 63.6802 53.7691 65.6982 56.3838C67.8956 59.2202 71.685 60.7843 74.129 63.4106C74.129 62.5468 74.129 61.6831 74.129 60.8193C70.3845 63.9242 65.2834 65.1031 61.6173 68.5348C59.9356 70.1106 62.4245 72.7018 64.1062 71.1261C67.7386 67.7177 72.8397 66.5271 76.6179 63.4106C77.369 62.7919 77.2233 61.4729 76.6179 60.8193C74.2411 58.2747 70.093 56.6872 68.1871 53.7925C67.7162 53.0805 67.5704 54.843 68.8709 53.4073C69.7118 52.4735 70.2499 50.886 70.889 49.8005C71.8307 48.178 73.5572 46.3455 73.8599 44.4662C73.9608 43.8592 73.916 43.1122 73.4115 42.6803C70.9899 40.661 67.0996 41.2446 64.1623 41.1512C63.1084 41.1162 62.0658 41.0929 61.0119 41.0695C59.6554 41.8282 59.2405 41.3847 59.7675 39.7622C59.1509 37.988 59.5993 34.8598 59.4199 32.9222C59.3078 31.6849 58.3885 30.9028 57.2001 31.1596C52.6932 32.1168 48.7917 34.1011 44.5763 35.9453C42.5023 36.8324 43.4104 40.3808 45.4956 39.4704Z" fill="#F48990"/>
<path fill-rule="evenodd" clip-rule="evenodd" d="M53.6094 105.381C82.3282 105.381 105.609 82.1002 105.609 53.3813C105.609 24.6625 82.3282 1.38135 53.6094 1.38135C24.8906 1.38135 1.60938 24.6625 1.60938 53.3813C1.60938 82.1002 24.8906 105.381 53.6094 105.381ZM53.6094 106.381C82.8805 106.381 106.609 82.6524 106.609 53.3813C106.609 24.1103 82.8805 0.381348 53.6094 0.381348C24.3383 0.381348 0.609375 24.1103 0.609375 53.3813C0.609375 82.6524 24.3383 106.381 53.6094 106.381Z" fill="#FFA0A0"/>
</svg>
