<svg width="107" height="107" viewBox="0 0 107 107" fill="none" xmlns="http://www.w3.org/2000/svg">
<path fill-rule="evenodd" clip-rule="evenodd" d="M83.7047 63.2329C78.4819 75.9649 67.5828 84.2746 53.7288 84.0659C36.9588 83.818 24.1416 71.4513 23.8435 54.2578C23.4806 34.1814 40.3024 18.2273 60.4549 23.0279C78.2227 27.2545 87.5668 48.805 75.5012 63.4938C73.8423 65.5027 76.7065 68.4118 78.3783 66.3898C88.0592 54.597 87.0743 39.5038 76.9397 28.3633C66.0924 16.414 47.0674 14.979 33.9521 24.0584C20.1629 33.5944 16.3138 53.8404 22.9493 68.777C28.7293 81.7699 41.391 88.4882 55.245 88.162C70.4858 87.8098 81.9422 78.1565 87.6316 64.3156C88.6165 61.8892 84.6897 60.8326 83.7047 63.2329ZM45.4478 47.5663C44.5597 41.9725 48.1248 39.5393 52.6129 38.9033C52.6472 37.9425 52.6793 36.9817 52.7113 36.0209C52.7469 34.9512 52.7825 33.8815 52.8214 32.8118C52.9121 30.1767 56.9815 30.1767 56.8908 32.8118C56.8519 33.8815 56.8163 34.9512 56.7806 36.0209L56.7805 36.026C56.75 36.9412 56.7195 37.8564 56.6869 38.7716C59.6864 38.9596 62.643 39.7114 64.6542 40.6785C67.0258 41.8265 64.9523 45.3487 62.5936 44.2137C59.4962 42.7266 54.1438 41.2003 50.9946 43.5615C48.6489 46.7967 48.9729 48.6621 51.9666 49.1317C53.0422 49.9014 54.2216 50.1884 55.5046 50.0058C56.0534 50.0733 56.6109 50.0715 57.1702 50.0697C57.7995 50.0676 58.4312 50.0656 59.0556 50.1623C63.6174 50.8537 68.1145 54.6498 67.5313 59.6852C67.0258 64.1075 62.8009 66.8078 58.7575 67.6166C58.3716 67.6949 57.987 67.7548 57.6042 67.797C57.5335 68.9204 57.4647 70.0419 57.3959 71.1633L57.3959 71.1638L57.3959 71.1642C57.3149 72.485 57.2339 73.8058 57.1497 75.1299C56.9812 77.752 52.9118 77.765 53.0803 75.1299C53.1645 73.8058 53.2455 72.485 53.3265 71.1642C53.3996 69.9724 53.4727 68.7806 53.5482 67.5863C50.5203 66.9311 47.7777 65.1883 45.6811 62.7247C43.9963 60.7288 46.8475 57.8328 48.5581 59.8287C51.7074 63.5205 56.7098 65.1511 61.0903 62.3856C64.6024 60.1809 63.3582 55.563 59.4444 54.3628C58.3098 54.0141 57.0421 54.0499 55.8076 54.0848C55.1948 54.1021 54.5903 54.1192 54.0142 54.0889C49.9319 53.8671 46.1476 52.0017 45.4478 47.5663ZM35.7897 55.0909C33.8688 55.2504 31.9479 55.4098 30.0385 55.7316C27.4724 56.1621 26.3838 52.2225 28.9628 51.7789C31.1596 51.4134 33.3745 51.2184 35.5911 51.0234C36.6175 50.933 37.6442 50.8427 38.6697 50.7353C41.2746 50.4614 41.2487 54.5575 38.6697 54.8315C37.7107 54.9315 36.7502 55.0112 35.7897 55.0909Z" fill="#F48990"/>
<path fill-rule="evenodd" clip-rule="evenodd" d="M53.7852 105.381C82.504 105.381 105.785 82.1002 105.785 53.3813C105.785 24.6625 82.504 1.38135 53.7852 1.38135C25.0663 1.38135 1.78516 24.6625 1.78516 53.3813C1.78516 82.1002 25.0663 105.381 53.7852 105.381ZM53.7852 106.381C83.0563 106.381 106.785 82.6524 106.785 53.3813C106.785 24.1103 83.0563 0.381348 53.7852 0.381348C24.5141 0.381348 0.785156 24.1103 0.785156 53.3813C0.785156 82.6524 24.5141 106.381 53.7852 106.381Z" fill="#FFA0A0"/>
</svg>
