<svg width="22" height="13" viewBox="0 0 22 13" fill="none" xmlns="http://www.w3.org/2000/svg">
<path d="M14.6417 0.870687C14.3807 0.666461 14.0036 0.712449 13.7994 0.973405C13.5952 1.23436 13.6412 1.61147 13.9021 1.81569L19.24 5.99316L0.853906 5.99316C0.522535 5.99316 0.253906 6.26179 0.253906 6.59316C0.253906 6.92453 0.522535 7.19316 0.853906 7.19316L19.2401 7.19316L13.9021 11.3707C13.6412 11.5749 13.5952 11.952 13.7994 12.213C14.0036 12.4739 14.3807 12.5199 14.6417 12.3157L21.35 7.06569C21.4953 6.95197 21.5802 6.77771 21.5802 6.59319C21.5802 6.40867 21.4953 6.23441 21.35 6.12069L14.6417 0.870687Z" fill="#FF9993"/>
</svg>
