<svg width="177" height="176" viewBox="0 0 177 176" fill="none" xmlns="http://www.w3.org/2000/svg">
<path d="M88.9417 60.1996C78.9265 52.211 67.9718 45.8062 60.3674 34.9981C51.9652 23.0588 51.2739 5.60223 65.242 1.02489C73.9455 -1.82941 81.3727 3.4789 85.8397 10.371C93.4087 -5.76279 115.247 -0.819962 118.367 15.7664C119.75 23.1284 116.258 29.9857 111.56 35.5725C108.369 39.3666 105.002 42.5168 101.244 45.667C98.6379 47.8947 90.0585 57.1364 88.9417 60.1996Z" fill="#F48990"/>
<path d="M47.0487 113.366C45.7608 112.305 43.0664 113.148 40.8606 114.936C37.3372 117.785 29.0173 126.274 29.4614 136.754C29.6095 140.082 31.7709 141.448 33.577 141.434C35.3831 141.419 38.033 140.911 44.3988 134.268C44.3988 134.268 42.5187 137.829 42.2522 141.114C42.0745 143.251 42.7703 144.719 43.5254 144.981C43.5254 144.981 43.7622 140.794 45.1834 137.19C46.6046 133.57 47.7297 131.259 48.2923 129.602C48.2923 129.602 50.5277 129.021 51.7712 128.904C51.7712 128.904 51.4604 127.436 49.7727 127.538C47.8185 127.654 41.8673 129.573 38.64 129.733C38.64 129.733 38.3291 131.942 40.4017 131.913C42.4743 131.884 45.1686 130.518 45.4647 130.387C45.7608 130.271 45.213 130.939 43.5254 132.553C41.8377 134.181 36.0641 140.242 32.9848 140.286C32.1114 140.3 31.312 139.079 31.2823 136.739C31.2527 134.399 32.2594 125.59 42.6371 116.142C44.1619 114.762 45.4647 114.238 45.9532 114.238C46.427 114.238 46.8711 115.154 46.2789 117.145C45.82 118.701 46.1901 119.442 46.9303 119.544C47.6409 119.645 49.0769 118.483 49.1509 115.256C49.2249 112.029 47.6261 113.846 47.0487 113.366Z" fill="#F48990"/>
<path d="M63.274 131.39C62.2821 133.076 58.4775 135.445 55.9312 135.344C55.0578 135.314 54.3768 134.777 54.3028 132.698C54.2731 131.71 54.4064 130.91 54.4064 130.91C54.4064 130.91 62.7263 126.128 63.6885 118.468C63.7774 117.756 62.0897 116.956 60.861 117.145C58.9068 117.436 52.3042 124.035 52.3042 132.407C52.3042 135.213 53.5922 137.146 55.6943 137.146C57.4708 137.146 59.8839 136.681 62.7411 134.21C62.7411 134.21 63.8958 130.329 63.274 131.39ZM61.9713 118.323C62.1933 118.468 61.6012 119.776 59.8395 122.756C58.0778 125.736 55.0281 128.265 55.0281 128.265C57.1303 121.971 61.6456 118.119 61.9713 118.323Z" fill="#F48990"/>
<path d="M70.4244 127.131C69.3585 126.753 67.2859 126.724 65.8943 127.858C64.4435 129.035 62.5634 131.492 62.7559 134.21C62.8595 135.649 63.9994 136.943 65.7611 136.87C67.7892 136.783 71.5051 134.224 71.7863 129.951C71.8752 128.439 71.5495 127.538 70.4244 127.131ZM68.1001 133.876C66.901 135.402 66.1756 135.489 65.613 135.489C65.0653 135.489 64.6952 135.097 64.6952 134.152C64.6952 133.294 64.858 132.626 65.3466 131.681C65.4354 131.521 65.6723 131.521 65.7463 131.695C65.8795 132.03 66.1608 132.451 66.6641 132.785C67.4487 133.309 68.3518 133.469 68.3518 133.469C68.3518 133.469 68.337 133.57 68.1001 133.876ZM68.8995 132.32C68.8995 132.32 68.485 132.291 67.9521 132C67.0342 131.506 66.6197 130.358 67.2563 129.413C67.9817 128.323 68.8699 128.032 69.2844 128.352C70.2023 129.064 69.2844 131.724 68.8995 132.32Z" fill="#F48990"/>
<path d="M68.6924 133.484C70.8982 133.658 72.7931 133.353 74.9101 131.986C75.6652 131.492 75.6355 129.995 75.3395 129.995C75.0434 129.995 72.9856 132.51 68.9441 132.321" fill="#F48990"/>
<path d="M82.6527 127.843C81.498 127.582 78.9073 127.727 75.9317 132.364C75.9317 132.364 76.0945 131.87 76.3018 131.375C78.3447 126.593 82.6675 119.515 81.5276 118.206C81.1575 117.785 80.0472 117.843 79.8696 118.337C77.264 124.675 73.2818 132.931 72.586 135.518C72.2899 136.623 73.6815 137.059 74.0072 136.594C74.1996 136.318 74.3773 136.012 74.5845 135.765C74.6141 135.722 74.6881 135.722 74.7178 135.765C75.4135 136.637 76.4202 137.015 77.5601 137.001C81.0095 136.957 84.3404 132.189 84.2959 129.777C84.2959 129.181 83.7926 128.105 82.6527 127.843ZM82.6527 129.573C82.0901 132.916 78.019 135.707 76.8347 135.605C76.509 135.576 76.361 135.402 76.361 134.966C76.361 133.236 80.3729 129.791 81.8829 129.442C82.2826 129.37 82.5639 129.413 82.6527 129.573Z" fill="#F48990"/>
<path d="M97.9896 130.184C97.4271 130.591 93.7852 135.387 89.7881 135.518C88.2781 135.562 87.0642 134.835 87.1382 133.541C87.1382 133.541 92.5121 133.89 93.8889 129.602C94.185 128.672 93.2375 127.175 91.5498 127.175C89.0183 127.175 85.6726 129.093 85.2136 132.873C84.9027 135.445 87.0493 136.885 89.5809 136.899C92.1716 136.899 94.8067 135.794 97.8268 132.669C98.5818 131.87 98.5522 129.777 97.9896 130.184ZM91.9199 128.425C92.1716 128.599 91.7423 129.733 90.3507 130.939C89.0183 132.088 87.3158 132.131 87.3158 132.131C88.589 128.89 91.6534 128.236 91.9199 128.425Z" fill="#F48990"/>
<path d="M105.51 116.172C102.919 116.071 100.595 116.042 99.3808 116.594C98.1965 117.132 98.4185 118.469 98.4185 118.469C98.4185 118.469 100.151 118.353 101.957 118.28C101.957 118.28 99.6177 122.961 97.249 129.763C94.9988 136.246 94.0957 140.897 94.0957 140.897C94.0957 140.897 91.4014 140.955 90.5872 141.537C89.7729 142.133 89.7729 143.078 89.921 143.063C90.2467 143.15 93.0446 142.816 95.6057 142.816C98.1669 142.816 99.0107 143.092 99.2476 141.537C99.292 141.246 99.3512 141.043 98.9515 140.941C98.5518 140.839 97.5007 140.795 95.6946 140.868C95.6946 140.868 96.4052 137.336 99.2476 129.981C102.09 122.626 104.74 118.062 104.74 118.062C104.74 118.062 107.005 117.873 108.663 117.873C108.663 117.844 108.959 116.303 105.51 116.172Z" fill="#F48990"/>
<path d="M102.327 127.858C101.557 129.442 100.373 133.062 99.8992 135.155C99.7068 136.027 99.988 136.754 100.773 136.855C101.557 136.957 102.046 136.623 102.742 135.765C103.733 134.544 106.354 131.71 107.449 130.663C107.79 130.344 108.145 130.649 108.086 131.085C107.864 132.713 107.094 136.332 110.262 136.885C113.504 137.466 116.732 134.675 117.19 133.527C117.19 133.527 117.635 131.754 116.465 131.419C115.296 133.047 113.149 135.402 111.165 135.431C109.936 135.446 109.685 134.195 110.025 132.088C110.114 131.506 110.188 131.012 110.247 130.576C110.543 128.192 108.604 127.509 107.198 128.73C105.495 130.213 103.186 133.004 102.594 133.759C102.386 134.036 102.09 133.89 102.223 133.556C102.549 132.742 104.178 129.021 104.311 128.657C104.4 128.294 103.571 127.48 102.327 127.858Z" fill="#F48990"/>
<path d="M53.8586 131.26C53.8586 131.26 52.6743 132.19 51.1347 132.859C49.6839 133.484 48.9141 132.496 49.1806 131.885C51.4456 130.809 52.9704 129.82 54.3915 128.832C54.7764 128.556 53.8586 131.26 53.8586 131.26Z" fill="#F48990"/>
<path d="M85.421 133.469C85.421 133.469 83.156 133.396 81.2759 132.829C81.8384 132.451 82.3714 131.71 82.3566 131.288C83.1412 131.695 84.9621 132.117 86.4129 132.146C86.8867 132.175 85.421 133.469 85.421 133.469Z" fill="#F48990"/>
<path d="M1.0082 89.1793C1.023 104.064 0.771333 118.933 0.682508 133.803C0.6529 140.228 0.860157 146.667 1.12663 153.091C1.25987 156.202 1.40791 159.327 1.60036 162.438C1.7336 164.487 1.28948 168.79 2.23694 170.65C4.54638 175.214 15.7679 174.037 20.0611 174.226C34.2582 174.851 48.4997 174.866 62.7116 174.822C82.4159 174.764 102.105 174.459 121.795 174.836C129.36 174.982 143.201 177.424 145.2 167.845C146.636 160.882 145.467 152.539 145.392 145.46C145.274 134.617 145.511 123.774 145.289 112.945C145.156 106.927 146.118 99.4994 144.608 93.5835C143.601 89.659 141.662 88.9322 137.694 88.4089C128.575 87.2316 118.952 88.031 109.789 87.9729C98.1082 87.9002 86.4278 87.7839 74.7474 87.6967C52.482 87.5368 30.2315 86.8391 7.96612 86.7374C5.89355 86.7228 5.89355 89.877 7.96612 89.8915C42.3856 90.0369 76.8199 90.9381 111.254 91.127C118.271 91.1706 125.318 91.0108 132.335 91.2288C135.281 91.316 138.982 90.8654 140.803 93.2201C142.713 95.7057 141.84 100.779 141.854 103.744C141.958 119.834 142.313 135.911 142.269 152.001C142.254 157.67 144.504 168.499 137.961 171.144C132.498 173.354 123.32 171.697 117.516 171.581C100.669 171.275 83.8223 171.551 66.9604 171.639C54.5102 171.697 42.0451 171.668 29.5801 171.377C24.4727 171.246 7.74406 172.802 5.27178 168.412C4.32431 166.726 4.85726 162.612 4.73883 160.679C4.56118 157.481 4.39833 154.283 4.2799 151.071C4.02823 144.777 3.83578 138.469 3.9246 132.161C4.13186 117.829 4.25029 103.497 4.23549 89.1648C4.22069 87.1589 1.0082 87.1443 1.0082 89.1793Z" fill="#F48990"/>
<path d="M168.443 72.1144C160.7 76.9111 153.609 82.7689 145.497 86.9842C143.676 87.929 145.289 90.6616 147.11 89.7023C155.223 85.487 162.314 79.6293 170.057 74.8326C171.803 73.7569 170.205 71.0243 168.443 72.1144Z" fill="#F48990"/>
<path d="M4.857 85.2404C12.8216 79.6006 21.4968 69.8327 31.5044 68.8443C37.1299 68.292 42.9479 68.7862 48.5883 68.917C59.8246 69.1641 71.0757 69.1932 82.312 69.2368C98.4336 69.3095 114.555 69.3095 130.662 69.135C137.768 69.0478 144.874 68.9461 151.98 68.7135C157.517 68.5391 168.368 66.8384 172.587 70.8938C174.068 72.3038 176.348 70.0798 174.852 68.6699C170.988 64.9779 163.083 65.3413 158.139 65.3703C151.047 65.4139 143.941 65.7919 136.85 65.8936C119.559 66.1553 102.253 66.1698 84.9619 66.0971C72.8374 66.0535 60.7128 66.0244 48.5883 65.7628C42.3113 65.632 35.6939 64.9197 29.4762 65.7483C19.9424 67.0274 10.7046 77.2168 3.21375 82.5223C1.5853 83.6851 3.18414 86.4178 4.857 85.2404Z" fill="#F48990"/>
<path d="M172.366 70.5737C174.616 74.9634 173.298 83.6701 173.402 88.4087C173.639 98.7434 173.654 109.078 173.565 119.413C173.491 127.553 173.506 135.751 172.869 143.861C171.922 155.809 157.813 160.621 149.212 166.958C147.584 168.165 149.182 170.897 150.826 169.676C159.19 163.513 173.476 158.397 175.756 147.132C177.355 139.225 176.644 130.343 176.748 122.349C176.896 110.604 176.881 98.8451 176.6 87.115C176.466 81.984 177.606 73.7715 175.149 69.0039C174.201 67.1724 171.433 68.7568 172.366 70.5737Z" fill="#F48990"/>
</svg>
