<svg width="267" height="214" viewBox="0 0 267 214" fill="none" xmlns="http://www.w3.org/2000/svg">
<path d="M236.359 172.026H7.63938C4.16938 172.026 1.35938 169.159 1.35938 165.618V7.76619C1.35938 4.22504 4.16938 1.35742 7.63938 1.35742H236.359C239.829 1.35742 242.639 4.22504 242.639 7.76619V165.618C242.639 169.159 239.829 172.026 236.359 172.026Z" fill="white"/>
<path fill-rule="evenodd" clip-rule="evenodd" d="M7.63947 2.00752C4.54083 2.00752 2.00947 4.57162 2.00947 7.76628V165.618C2.00947 168.812 4.54083 171.377 7.63947 171.377H236.359C239.458 171.377 241.989 168.812 241.989 165.618V7.76628C241.989 4.57162 239.458 2.00752 236.359 2.00752H7.63947ZM0.709473 7.76628C0.709473 3.87865 3.79811 0.70752 7.63947 0.70752H236.359C240.201 0.70752 243.289 3.87865 243.289 7.76628V165.618C243.289 169.505 240.201 172.677 236.359 172.677H7.63947C3.79811 172.677 0.709473 169.505 0.709473 165.618V7.76628Z" fill="#A2A2A2"/>
<path d="M83.7397 90.5391C82.6597 89.6206 80.4197 90.3452 78.5697 91.9065C75.6297 94.3762 68.6897 101.734 69.0697 110.827C69.1897 113.715 70.9897 114.899 72.4997 114.878C74.0097 114.858 76.2197 114.419 81.5297 108.663C81.5297 108.663 79.9597 111.755 79.7397 114.592C79.5897 116.439 80.1697 117.725 80.7997 117.95C80.7997 117.95 80.9997 114.327 82.1797 111.194C83.3697 108.061 84.3097 106.051 84.7697 104.622C84.7697 104.622 86.6297 104.112 87.6697 104.02C87.6697 104.02 87.4097 102.744 86.0097 102.836C84.3797 102.938 79.4097 104.602 76.7197 104.734C76.7197 104.734 76.4597 106.653 78.1897 106.632C79.9197 106.612 82.1697 105.418 82.4097 105.316C82.6497 105.214 82.1997 105.785 80.7897 107.204C79.3797 108.612 74.5697 113.878 71.9997 113.909C71.2697 113.919 70.5997 112.868 70.5797 110.827C70.5597 108.786 71.3997 101.163 80.0497 92.9679C81.3197 91.7637 82.4097 91.3146 82.8097 91.3146C83.2097 91.3146 83.5797 92.1004 83.0797 93.8353C82.6997 95.1824 82.9997 95.8253 83.6197 95.9171C84.2097 95.9988 85.4197 94.9987 85.4697 92.1923C85.5497 89.3553 84.2297 90.9473 83.7397 90.5391Z" fill="#F48990"/>
<path d="M97.2798 106.162C96.4598 107.632 93.2799 109.683 91.1499 109.591C90.4199 109.561 89.8599 109.101 89.7899 107.295C89.7599 106.438 89.8799 105.744 89.8799 105.744C89.8799 105.744 96.8199 101.601 97.6199 94.9571C97.6898 94.3346 96.2899 93.6509 95.2699 93.804C93.6399 94.0591 88.1299 99.7739 88.1299 107.04C88.1299 109.469 89.2099 111.153 90.9599 111.153C92.4499 111.153 94.4499 110.755 96.8399 108.601C96.8399 108.591 97.7998 105.244 97.2798 106.162ZM96.1899 94.8347C96.3699 94.9673 95.8799 96.0899 94.4099 98.682C92.9399 101.274 90.3999 103.458 90.3999 103.458C92.1599 97.988 95.9299 94.651 96.1899 94.8347Z" fill="#F48990"/>
<path d="M103.239 102.469C102.359 102.142 100.619 102.122 99.4594 103.091C98.2494 104.112 96.6794 106.244 96.8394 108.591C96.9194 109.836 97.8794 110.958 99.3494 110.897C101.039 110.826 104.139 108.612 104.379 104.897C104.449 103.601 104.179 102.816 103.239 102.469ZM101.309 108.305C100.309 109.632 99.6994 109.703 99.2294 109.703C98.7794 109.703 98.4694 109.367 98.4694 108.55C98.4694 107.816 98.6094 107.224 99.0094 106.407C99.0794 106.265 99.2794 106.265 99.3394 106.418C99.4594 106.703 99.6794 107.081 100.109 107.367C100.769 107.816 101.509 107.948 101.509 107.948C101.509 107.948 101.509 108.04 101.309 108.305ZM101.969 106.959C101.969 106.959 101.619 106.928 101.179 106.683C100.419 106.254 100.069 105.265 100.599 104.438C101.199 103.499 101.949 103.234 102.289 103.51C103.059 104.142 102.289 106.448 101.969 106.959Z" fill="#F48990"/>
<path d="M101.8 107.98C103.64 108.123 105.22 107.868 106.98 106.684C107.61 106.255 107.59 104.949 107.34 104.949C107.1 104.949 105.38 107.133 102 106.969" fill="#F48990"/>
<path d="M113.45 103.081C112.49 102.846 110.32 102.979 107.84 107C107.84 107 107.98 106.571 108.15 106.153C109.86 101.999 113.46 95.8763 112.51 94.7436C112.2 94.3762 111.27 94.4272 111.12 94.8558C108.95 100.356 105.63 107.51 105.04 109.745C104.79 110.704 105.96 111.082 106.23 110.684C106.4 110.439 106.54 110.174 106.71 109.959C106.74 109.919 106.8 109.919 106.83 109.959C107.41 110.715 108.25 111.051 109.2 111.031C112.07 110.99 114.85 106.857 114.81 104.765C114.81 104.234 114.4 103.306 113.45 103.081ZM113.45 104.581C112.98 107.479 109.59 109.898 108.6 109.806C108.33 109.786 108.21 109.633 108.21 109.255C108.21 107.755 111.55 104.765 112.82 104.469C113.14 104.408 113.37 104.449 113.45 104.581Z" fill="#F48990"/>
<path d="M126.23 105.112C125.76 105.469 122.72 109.622 119.39 109.734C118.13 109.775 117.11 109.142 117.19 108.02C117.19 108.02 121.67 108.316 122.82 104.602C123.07 103.795 122.28 102.5 120.87 102.5C118.76 102.5 115.96 104.163 115.59 107.428C115.33 109.663 117.13 110.908 119.23 110.908C121.39 110.908 123.59 109.949 126.11 107.244C126.73 106.571 126.7 104.755 126.23 105.112ZM121.18 103.591C121.39 103.744 121.03 104.724 119.87 105.765C118.76 106.755 117.34 106.795 117.34 106.795C118.39 103.979 120.95 103.418 121.18 103.591Z" fill="#F48990"/>
<path d="M132.51 92.9681C130.35 92.8762 128.4 92.8558 127.4 93.3253C126.41 93.7947 126.6 94.9479 126.6 94.9479C126.6 94.9479 128.04 94.8458 129.55 94.7846C129.55 94.7846 127.6 98.8462 125.63 104.735C123.75 110.347 123 114.378 123 114.378C123 114.378 120.76 114.419 120.07 114.929C119.38 115.44 119.39 116.266 119.52 116.256C119.79 116.327 122.12 116.052 124.26 116.042C126.4 116.042 127.1 116.287 127.3 114.929C127.34 114.684 127.38 114.501 127.05 114.419C126.71 114.327 125.84 114.297 124.34 114.348C124.34 114.348 124.93 111.286 127.3 104.918C129.67 98.54 131.88 94.5805 131.88 94.5805C131.88 94.5805 133.77 94.4172 135.15 94.4172C135.14 94.4172 135.38 93.0803 132.51 92.9681Z" fill="#F48990"/>
<path d="M129.85 103.091C129.21 104.469 128.22 107.601 127.83 109.408C127.67 110.152 127.91 110.795 128.56 110.887C129.21 110.969 129.62 110.683 130.2 109.948C131.03 108.887 133.21 106.438 134.12 105.53C134.4 105.244 134.7 105.509 134.65 105.897C134.46 107.305 133.82 110.438 136.46 110.928C139.17 111.428 141.85 109.01 142.24 108.02C142.24 108.02 142.61 106.489 141.63 106.183C140.65 107.591 138.87 109.642 137.21 109.663C136.19 109.673 135.98 108.581 136.26 106.754C136.34 106.254 136.39 105.826 136.44 105.448C136.69 103.387 135.06 102.795 133.89 103.846C132.47 105.122 130.54 107.55 130.05 108.203C129.87 108.438 129.63 108.316 129.74 108.03C130.01 107.326 131.37 104.101 131.48 103.775C131.59 103.448 130.89 102.765 129.85 103.091Z" fill="#F48990"/>
<path d="M89.4297 106.04C89.4297 106.04 88.4397 106.846 87.1597 107.417C85.9497 107.958 85.3097 107.101 85.5297 106.57C87.4097 105.642 88.6897 104.785 89.8797 103.918C90.1897 103.694 89.4297 106.04 89.4297 106.04Z" fill="#F48990"/>
<path d="M115.76 107.959C115.76 107.959 113.86 107.888 112.3 107.408C112.76 107.082 113.21 106.439 113.2 106.071C113.85 106.429 115.38 106.796 116.59 106.816C116.97 106.837 115.76 107.959 115.76 107.959Z" fill="#F48990"/>
<path d="M13.6593 17.8788C16.1004 17.8788 18.0793 15.8595 18.0793 13.3686C18.0793 10.8777 16.1004 8.8584 13.6593 8.8584C11.2182 8.8584 9.23926 10.8777 9.23926 13.3686C9.23926 15.8595 11.2182 17.8788 13.6593 17.8788Z" fill="#F48990"/>
<path d="M27.71 17.8788C30.1511 17.8788 32.13 15.8595 32.13 13.3686C32.13 10.8777 30.1511 8.8584 27.71 8.8584C25.2689 8.8584 23.29 10.8777 23.29 13.3686C23.29 15.8595 25.2689 17.8788 27.71 17.8788Z" fill="#EFD978"/>
<path d="M41.67 17.8788C44.1111 17.8788 46.09 15.8595 46.09 13.3686C46.09 10.8777 44.1111 8.8584 41.67 8.8584C39.2289 8.8584 37.25 10.8777 37.25 13.3686C37.25 15.8595 39.2289 17.8788 41.67 17.8788Z" fill="#93ED7A"/>
<path fill-rule="evenodd" clip-rule="evenodd" d="M242.64 25.5402H1.37012V24.2402H242.64V25.5402Z" fill="#A2A2A2"/>
<path d="M45.3495 69.5678C45.3495 91.6822 43.7695 114.205 46.8495 136.197C47.0995 137.962 47.1395 140.421 48.6595 141.575C50.4695 142.952 54.3195 142.769 56.4295 142.942C67.8795 143.871 79.4395 143.789 90.9195 143.81C107.57 143.84 124.22 143.432 140.87 143.707C146.53 143.799 152.27 144.197 157.91 143.585C161.21 143.228 164.17 142.799 165.27 139.258C167.07 133.421 165.86 125.849 165.78 119.838C165.67 111.449 165.799 103.071 165.729 94.6825C165.679 88.2533 166.07 81.3955 165.32 74.9969C164.88 71.2517 163.82 69.6393 160.2 69.027C152.98 67.7922 145.17 68.578 137.9 68.5371C128.41 68.4861 118.91 68.3841 109.42 68.3126C99.7395 68.231 90.0295 68.3943 80.3595 67.9657C70.9695 67.5472 61.5995 66.7717 52.1995 66.7002C50.4795 66.69 50.4695 69.425 52.1995 69.4352C66.7095 69.5372 81.1595 70.8945 95.6695 70.9557C110.73 71.017 125.78 71.2211 140.84 71.2925C146.49 71.3231 152.259 70.9863 157.899 71.5068C161.509 71.8436 162.57 73.1906 162.79 76.9155C162.93 79.283 162.77 81.6812 162.8 84.0488C163.01 98.693 163.11 113.337 163.09 127.992C163.09 130.829 163.61 133.962 163.02 136.768C162.2 140.626 160.1 140.677 156.75 140.973C151.48 141.422 146.15 141.075 140.87 140.993C126.33 140.748 111.8 141.034 97.2595 141.085C86.5495 141.115 75.8195 141.095 65.1195 140.687C61.1795 140.544 57.1895 140.442 53.2795 139.911C49.6995 139.432 49.8795 138.85 49.3995 135.227C46.5095 113.531 48.0295 91.376 48.0295 69.578C48.0295 67.8126 45.3495 67.8024 45.3495 69.5678Z" fill="#F48990"/>
<path d="M184.99 54.7704C178.53 58.9238 172.61 63.9958 165.85 67.6594C164.33 68.4861 165.68 70.8434 167.2 70.0168C173.96 66.3634 179.88 61.2812 186.34 57.1277C187.8 56.1991 186.46 53.8315 184.99 54.7704Z" fill="#F48990"/>
<path d="M48.5702 66.1491C54.0102 62.1487 59.1002 57.383 64.8202 53.8316C69.9402 50.6476 77.2102 51.7906 83.0302 51.9437C87.9302 52.0763 92.8302 52.1172 97.7402 52.1682C118.03 52.3621 138.32 52.4335 158.61 52.1172C163.72 52.0355 168.83 51.9131 173.94 51.7396C177.87 51.6069 185.58 50.6272 188.49 53.7193C189.69 54.9848 191.58 53.056 190.38 51.7906C185.66 46.7799 173.66 49.0556 167.54 49.2087C156.61 49.4945 145.68 49.5557 134.75 49.5863C117.7 49.6271 100.62 49.6986 83.5702 49.2393C78.5502 49.1067 71.9102 48.0045 67.0702 49.423C64.3302 50.2292 61.2802 52.8213 59.0602 54.5562C55.1102 57.6381 51.2702 60.8323 47.2302 63.7917C45.8302 64.802 47.1602 67.1798 48.5702 66.1491Z" fill="#F48990"/>
<path d="M188.26 53.4339C188.76 54.3932 188.68 56.9955 188.75 58.3119C188.95 61.7204 189.04 65.1391 189.11 68.5578C189.31 77.7117 189.33 86.8758 189.24 96.0298C189.17 103.163 189.2 110.358 188.62 117.481C187.8 127.471 175.79 131.686 168.92 136.983C167.56 138.034 168.9 140.401 170.27 139.34C177.18 134.013 189.31 129.533 191.08 119.736C192.33 112.786 191.81 105.112 191.9 98.0912C192.02 88.1004 192.01 78.0995 191.78 68.1088C191.68 63.7002 192.7 56.1689 190.57 52.0563C189.77 50.5051 187.46 51.8828 188.26 53.4339Z" fill="#F48990"/>
<path d="M181.47 107.694L192.07 138.044L196.85 123.39L211.22 118.501L181.47 107.694Z" fill="#553F3F"/>
<path d="M217.793 134.358C217.793 132.149 219.584 130.358 221.793 130.358H262.868C265.077 130.358 266.868 132.149 266.868 134.358V209.695C266.868 211.904 265.077 213.695 262.868 213.695H221.793C219.584 213.695 217.793 211.904 217.793 209.695V134.358Z" fill="white"/>
<path fill-rule="evenodd" clip-rule="evenodd" d="M262.868 131.658H221.793C220.302 131.658 219.093 132.867 219.093 134.358V209.695C219.093 211.186 220.302 212.395 221.793 212.395H262.868C264.359 212.395 265.568 211.186 265.568 209.695V134.358C265.568 132.867 264.359 131.658 262.868 131.658ZM221.793 130.358C219.584 130.358 217.793 132.149 217.793 134.358V209.695C217.793 211.904 219.584 213.695 221.793 213.695H262.868C265.077 213.695 266.868 211.904 266.868 209.695V134.358C266.868 132.149 265.077 130.358 262.868 130.358H221.793Z" fill="#A2A2A2"/>
<path d="M246.019 204.165C246.019 206.203 244.367 207.855 242.33 207.855C240.292 207.855 238.641 206.203 238.641 204.165C238.641 202.128 240.292 200.476 242.33 200.476C244.367 200.476 246.019 202.128 246.019 204.165Z" fill="#A2A2A2"/>
<path d="M242.427 178.105C240.605 177.388 238.788 176.671 236.971 175.943C235.387 175.311 233.434 174.828 231.986 173.93C229.876 172.618 230.341 170.217 230.291 167.986C230.245 166.126 230.21 164.267 230.179 162.408C230.169 161.733 229.901 160.517 230.144 159.874C229.81 159.316 229.886 159.173 230.356 159.433C230.498 159.475 230.645 159.523 230.787 159.566C231.855 159.725 233.024 160.325 234.041 160.697C235.995 161.409 238.525 161.935 240.282 163.088C242.22 164.363 241.987 166.695 242.058 168.798C242.088 169.717 242.463 172.527 241.177 172.66C240.135 172.766 238.07 171.348 237.108 170.939C236.541 170.7 235.448 170.498 235.018 170.052C234.537 169.553 234.613 168.75 234.562 167.938C234.522 167.268 234.502 166.594 234.497 165.924C234.491 165.074 233.909 165.436 234.537 165.51C235.742 165.659 237.108 166.578 238.171 167.189C239.067 167.704 239.867 166.264 238.971 165.749C237.923 165.149 234.451 162.806 233.277 163.948C232.275 164.92 232.796 169.271 233.246 170.371C233.793 171.709 235.499 172.039 236.688 172.538C238.105 173.138 240.16 174.567 241.754 174.445C244.821 174.217 243.667 168.703 243.561 166.801C243.384 163.667 243.085 162.418 240.256 161.292C237.427 160.166 234.578 159.05 231.688 158.105C229.304 157.335 228.524 157.627 228.56 160.384C228.6 163.258 228.656 166.132 228.727 169.005C228.762 170.461 228.291 173.069 229.203 174.318C230.098 175.545 232.518 175.933 233.828 176.458C236.546 177.558 239.274 178.642 242.002 179.715C242.964 180.087 243.374 178.477 242.427 178.105Z" fill="#F48990"/>
<path d="M245.555 178.546C247.574 177.292 249.594 176.044 251.618 174.79C252.894 173.999 254.766 173.34 255.359 171.794C256.234 169.499 255.708 165.855 255.779 163.39C255.829 161.605 256.619 158.046 255.51 156.479C254.448 154.971 251.537 154.137 250.004 153.324C248.086 152.309 245.859 150.556 243.617 150.646C241.703 150.726 239.497 151.741 237.7 152.426C235.589 153.233 233.565 154.264 231.566 155.337C230.655 155.826 231.459 157.265 232.365 156.777C235.316 155.188 238.297 153.876 241.486 152.904C244.35 152.033 246.319 153.233 248.784 154.535C250.333 155.353 253.243 156.203 254.068 157.733C254.888 159.252 254.215 162.615 254.159 164.405C254.098 166.402 254.579 169.452 253.653 171.162C252.884 172.575 250.692 173.43 249.326 174.275C247.802 175.221 246.279 176.161 244.755 177.106C243.875 177.648 244.674 179.093 245.555 178.546Z" fill="#F48990"/>
<path d="M238.278 158.418C240.16 157.59 241.957 156.671 243.977 156.24C243.643 155.975 243.308 155.704 242.974 155.438C243.096 156.84 242.443 159.831 243.804 160.671C244.751 161.255 247.023 160.915 248.132 160.904C249.579 160.888 249.18 160.596 249.018 161.186C248.886 161.664 248.289 162.424 248.046 162.854C247.352 164.097 246.487 164.926 247.398 166.115C248.39 167.406 250.101 168.118 251.204 169.313C251.204 168.92 251.204 168.527 251.204 168.134C249.514 169.547 247.211 170.084 245.556 171.645C244.797 172.363 245.92 173.542 246.679 172.825C248.319 171.274 250.622 170.732 252.328 169.313C252.667 169.032 252.601 168.432 252.328 168.134C251.255 166.976 249.382 166.254 248.522 164.936C248.309 164.612 248.243 165.414 248.83 164.761C249.21 164.336 249.453 163.613 249.741 163.119C250.166 162.381 250.946 161.547 251.083 160.692C251.128 160.416 251.108 160.076 250.88 159.879C249.787 158.96 248.031 159.226 246.705 159.183C246.229 159.167 245.758 159.157 245.282 159.146C244.67 159.491 244.483 159.289 244.721 158.551C244.442 157.744 244.645 156.32 244.564 155.438C244.513 154.875 244.098 154.519 243.562 154.636C241.527 155.072 239.766 155.975 237.863 156.814C236.926 157.218 237.336 158.833 238.278 158.418Z" fill="#F48990"/>
</svg>
