<svg width="402" height="215" viewBox="0 0 402 215" fill="none" xmlns="http://www.w3.org/2000/svg">
<path d="M185.16 22.6079C185.16 19.2942 187.846 16.6079 191.16 16.6079H380.46C383.774 16.6079 386.46 19.2942 386.46 22.6079V208.938C386.46 212.251 383.774 214.938 380.46 214.938H191.16C187.846 214.938 185.16 212.251 185.16 208.938V22.6079Z" fill="#FFDBD7"/>
<path d="M203.375 33.771H367.291V196.821H203.375V33.771Z" fill="white"/>
<path d="M378.883 45.5295C391.611 45.5295 401.929 35.5445 401.929 23.2274C401.929 10.9103 391.611 0.925293 378.883 0.925293C366.154 0.925293 355.836 10.9103 355.836 23.2274C355.836 35.5445 366.154 45.5295 378.883 45.5295Z" fill="#F48990"/>
<path d="M370.209 21.1698C370.857 22.656 371.341 24.2275 371.934 25.7454C372.364 26.8177 372.803 27.8915 373.308 28.9349C373.699 29.7364 374.103 30.6479 374.797 31.2456C376.793 32.9481 378.653 29.9118 379.746 28.5097C381.34 26.4788 382.86 24.3984 384.353 22.3043C385.949 20.0575 387.611 17.7804 388.893 15.3523C389.859 13.5295 386.885 12.2814 385.92 14.0946C384.487 16.7869 382.368 19.6103 380.4 22.307C379.414 23.665 378.41 25.0107 377.379 26.333C377.04 26.7678 376.699 27.2122 376.342 27.6346C375.997 28.0392 375.604 28.6927 375.251 28.8896C375.509 28.7876 375.766 28.6857 376.024 28.5837C376.348 28.5106 377.012 28.7797 377.067 29.0135C377.042 28.9117 376.849 28.7276 376.792 28.641C376.528 28.2602 376.809 28.7221 376.655 28.4155C376.548 28.1942 376.43 27.9811 376.314 27.7488C375.825 26.737 375.391 25.6935 374.978 24.6431C374.368 23.1033 373.879 21.5015 373.214 19.9934C372.405 18.1113 369.389 19.296 370.209 21.1698Z" fill="#F9E1E3"/>
<path d="M327.238 123.17C326.635 121.276 325.233 120.497 323.47 120.148C323.327 120.08 323.185 120.024 323.032 120.001C308.486 117.61 300.862 96.6345 299.734 55.9007C299.712 54.9872 299 54.2429 298.113 54.2091C287.762 53.7242 282.231 53.6791 271.748 54.3444C270.861 54.4008 270.171 55.1451 270.16 56.0586C269.612 95.7887 261.2 119.065 247.081 119.911C246.939 119.922 246.808 119.956 246.676 119.99C246.337 120.001 246.008 120.012 245.668 120.035C245.208 120.058 244.858 120.238 244.606 120.509C244.584 120.531 244.562 120.554 244.54 120.576C244.529 120.599 244.507 120.61 244.496 120.621C244.244 120.892 244.058 121.253 244.036 121.727C243.281 137.481 254.398 152.3 268.736 157.115C270.204 157.611 271.715 157.972 273.249 158.254C272.953 164.987 267.969 169.52 261.857 171.527C260.116 172.103 260.401 174.832 262.296 174.854C277.948 175.035 293.6 174.888 309.252 174.73C311.038 174.708 311.574 171.753 309.69 171.403C306.098 170.738 302.22 169.464 300.139 166.137C298.66 163.769 298.266 160.949 298.168 158.186C300.632 157.679 303.064 156.991 305.397 156.021C309.143 154.465 312.505 152.209 315.605 149.548C318.661 146.92 321.553 143.819 323.513 140.221C324.926 137.628 325.901 134.707 326.646 131.842C327.336 129.17 328.103 125.899 327.238 123.17ZM273.523 57.7276C282.395 57.1976 287.532 57.2314 296.382 57.6261C297.456 90.4545 302.998 110.776 313.239 119.212C311.673 119.167 310.107 119.144 308.562 119.11C302.943 118.986 297.313 118.975 291.683 118.997C280.073 119.043 268.473 119.212 256.874 119.595C267.093 111.363 272.898 90.0711 273.523 57.7276ZM297.445 168.077C298.343 169.43 299.449 170.524 300.687 171.426C290.194 171.516 279.7 171.573 269.207 171.516C273.315 168.539 276.195 164.208 276.513 158.75C277.773 158.897 279.043 159.021 280.292 159.122C284.618 159.472 288.989 159.449 293.304 158.953C293.83 158.897 294.367 158.818 294.893 158.75C295.057 162.009 295.637 165.347 297.445 168.077ZM322.528 134.064C321.575 136.85 320.348 139.421 318.53 141.733C313.677 147.868 307.084 152.424 299.624 154.375C291.913 156.393 283.643 156.371 275.801 155.232C268.813 154.217 262.569 151.262 257.421 146.244C252.273 141.214 248.549 134.56 247.52 127.286C247.355 126.001 247.279 124.704 247.279 123.396C247.552 123.384 247.815 123.339 248.089 123.317C261.31 122.696 274.563 122.415 287.795 122.403C297.565 122.392 307.368 122.212 317.128 122.832C318.475 122.922 319.855 123.012 321.137 123.17C321.586 123.272 322.035 123.373 322.495 123.452C322.582 123.463 322.681 123.475 322.769 123.475C322.791 123.475 322.812 123.463 322.834 123.463C323.075 123.52 323.305 123.576 323.546 123.632C323.656 123.655 323.754 123.7 323.853 123.734C323.853 123.745 323.853 123.734 323.864 123.745C323.897 123.79 324.006 123.881 324.039 123.971C324.236 124.467 324.28 125.008 324.291 125.538C324.346 128.425 323.448 131.369 322.528 134.064Z" fill="#F48990"/>
<path d="M317.183 126.565C316.624 126.159 315.868 126.058 315.167 126.294C314.368 126.554 313.732 127.197 313.426 128.054C313.064 129.069 312.944 130.467 312.823 131.944L312.757 132.7C312.571 134.831 312.035 138.79 310.578 141.327C310.118 142.128 309.406 142.579 308.814 142.432C308.256 142.297 307.883 141.62 307.807 140.617C307.697 139.151 307.686 137.639 307.675 136.173C307.664 134.301 307.653 132.542 307.456 130.862C307.204 128.719 306.207 127.287 304.794 127.027C303.513 126.791 302.056 127.873 301.487 129.046C301.005 130.027 300.84 131.414 300.709 132.463C300.15 137.087 299.57 141.609 298.595 146.041C298.222 147.721 297.653 148.567 296.799 148.725C296.185 148.838 295.429 148.624 295.024 148.24C294.257 147.496 294.071 146.323 293.863 145.071L293.754 144.44C293.009 140.245 292.319 135.993 291.705 131.798C291.53 130.614 291.004 127.016 288.266 126.576C287.203 126.407 286.075 126.824 285.243 127.682C283.95 129.024 283.622 130.862 283.359 132.339C282.603 136.636 281.902 141 281.3 145.319C281.168 146.278 281.037 147.18 280.642 147.936C280.259 148.68 279.613 149.176 278.999 149.21C278.397 149.255 277.696 148.804 277.247 148.105C276.776 147.372 276.568 146.447 276.36 145.556L272.822 130.264C272.581 129.215 271.935 126.43 269.645 126.159C268.605 126.035 267.531 126.543 266.841 127.49C265.812 128.899 265.79 130.647 265.79 132.046L265.735 141.124C265.724 142.726 265.538 143.797 264.618 144.214C264.114 144.44 263.468 144.361 262.931 144.011C261.704 143.211 261.288 141.744 260.927 140.177C260.335 137.572 259.897 134.899 259.623 132.238L259.612 132.068C259.514 131.031 259.404 129.96 258.944 128.956C258.331 127.636 257.191 126.836 255.976 126.813C254.519 126.824 253.424 128.031 252.985 129.215C252.547 130.388 252.602 131.64 252.635 132.745C252.646 133.151 252.963 133.489 253.369 133.444C253.763 133.433 254.07 133.083 254.048 132.689C254.015 131.674 253.971 130.636 254.3 129.734C254.563 129.035 255.187 128.279 255.976 128.279C255.976 128.279 255.976 128.279 255.987 128.279C256.72 128.279 257.356 128.933 257.651 129.599C258.013 130.366 258.101 131.268 258.188 132.226L258.232 132.384C258.506 135.113 258.955 137.842 259.557 140.515C259.974 142.308 260.51 144.158 262.186 145.252C263.139 145.872 264.267 145.985 265.209 145.556C267.159 144.677 267.17 142.376 267.181 141.135L267.236 132.057C267.247 130.749 267.258 129.396 268.002 128.369C268.386 127.851 268.988 127.546 269.514 127.614C270.401 127.715 271.014 128.663 271.464 130.602L275.001 145.895C275.221 146.864 275.483 147.958 276.086 148.906C276.787 150.011 277.882 150.676 278.967 150.676C279.01 150.676 279.054 150.676 279.098 150.676C280.226 150.62 281.311 149.83 281.935 148.624C282.439 147.643 282.592 146.571 282.745 145.522C283.359 141.226 284.049 136.884 284.805 132.598C285.046 131.256 285.309 129.734 286.294 128.719C286.809 128.189 287.488 127.93 288.091 128.02C289.252 128.212 289.975 129.475 290.347 132.012C290.96 136.219 291.65 140.493 292.395 144.699L292.494 145.308C292.713 146.673 292.965 148.218 294.082 149.3C294.816 150.011 296.021 150.349 297.083 150.157C299.274 149.751 299.833 147.191 300.019 146.346C301.005 141.846 301.596 137.29 302.155 132.587C302.264 131.685 302.418 130.445 302.779 129.689C303.119 128.99 304.039 128.358 304.564 128.46C305.463 128.629 305.934 129.948 306.065 131.031C306.251 132.621 306.262 134.346 306.284 136.173C306.295 137.662 306.306 139.196 306.416 140.718C306.536 142.399 307.325 143.571 308.519 143.853C309.723 144.147 311.027 143.447 311.826 142.071C313.349 139.433 313.962 135.587 314.203 132.824L314.269 132.057C314.379 130.681 314.488 129.373 314.784 128.55C314.992 127.963 315.397 127.749 315.616 127.682C315.901 127.591 316.197 127.614 316.394 127.76C316.953 128.155 317.873 129.587 317.741 134.685C317.73 135.091 318.037 135.429 318.431 135.44C318.826 135.44 319.154 135.136 319.165 134.73C319.264 130.264 318.617 127.591 317.183 126.565Z" fill="#F48990"/>
<path d="M155.126 173.351H5.75772C3.10725 173.351 0.949219 171.249 0.949219 168.637V22.2194C0.949219 19.621 3.09277 17.5054 5.75772 17.5054H155.111C157.762 17.5054 159.92 19.6068 159.92 22.2194V168.637C159.92 171.235 157.776 173.351 155.126 173.351Z" fill="white" stroke="#A3A3A3" stroke-width="1.3" stroke-miterlimit="10"/>
<path d="M40.0109 64.1197C35.9555 64.1197 33.4209 64.6166 33.4209 68.0953C33.4209 74.8823 42.5744 87.363 45.5291 105.864C47.9188 120.844 53.9439 133.679 67.1239 133.679C80.3038 133.679 69.3978 133.679 80.3038 133.679C91.2098 133.679 95.8011 123.158 97.7853 119.268C107.417 100.383 134.486 107.383 134.486 88.2433C134.486 77.0831 124.565 74.499 119.453 74.8681C117.845 74.9817 114.789 75.3509 112.863 75.862C110.893 76.3874 109.951 75.3509 110.458 73.7322C110.965 72.1136 112.486 68.9472 112.486 67.5842C112.486 66.2211 112.24 64.1055 108.3 64.1055C105.215 64.1055 64.7631 64.1055 47.6147 64.1055" stroke="#F48990" stroke-width="3.4" stroke-miterlimit="10" stroke-linecap="round"/>
<path d="M100.088 100.568C100.972 93.1421 104.665 81.499 118.714 81.499C124.667 81.499 126.694 84.9777 126.694 88.5843C126.694 92.1908 124.305 94.4484 117.324 97.274C110.299 100.128 99.8276 105.864 99.8276 105.864" stroke="#F48990" stroke-width="3.4" stroke-miterlimit="10" stroke-linecap="round"/>
</svg>
